<svg width="42" height="42" viewBox="0 0 42 42" fill="none" xmlns="http://www.w3.org/2000/svg">
<g clip-path="url(#clip0_40000045_1015)">
<path d="M26.1148 17.0503C25.8281 17.1265 25.5704 17.2859 25.3744 17.5086C25.1783 17.7312 25.0526 18.0069 25.0133 18.301C24.9739 18.595 25.0226 18.8941 25.1532 19.1604C25.2838 19.4268 25.4905 19.6484 25.7471 19.7973C26.0036 19.9462 26.2986 20.0157 26.5947 19.997C26.8907 19.9783 27.1746 19.8722 27.4104 19.6922C27.6461 19.5121 27.8232 19.2662 27.9193 18.9856C28.0153 18.7049 28.0259 18.402 27.9498 18.1153C27.8993 17.9249 27.8118 17.7462 27.6922 17.5897C27.5726 17.4331 27.4234 17.3016 27.253 17.2027C27.0826 17.1038 26.8943 17.0394 26.6991 17.0133C26.5038 16.9871 26.3053 16.9997 26.1148 17.0503Z" fill="#7C7C7C"/>
<path d="M21.1148 14.0503C20.8281 14.1265 20.5704 14.2859 20.3744 14.5086C20.1783 14.7312 20.0526 15.0069 20.0133 15.301C19.9739 15.595 20.0226 15.8941 20.1532 16.1604C20.2838 16.4268 20.4905 16.6484 20.7471 16.7973C21.0036 16.9462 21.2986 17.0157 21.5946 16.997C21.8907 16.9783 22.1746 16.8722 22.4103 16.6922C22.6461 16.5121 22.8232 16.2662 22.9192 15.9856C23.0153 15.7049 23.0259 15.402 22.9498 15.1153C22.8993 14.9249 22.8117 14.7462 22.6922 14.5897C22.5726 14.4331 22.4234 14.3016 22.2529 14.2027C22.0825 14.1038 21.8943 14.0394 21.699 14.0133C21.5038 13.9871 21.3052 13.9997 21.1148 14.0503Z" fill="#7C7C7C"/>
<path d="M16.1148 17.0503C15.8281 17.1265 15.5704 17.2859 15.3744 17.5086C15.1783 17.7312 15.0526 18.0069 15.0133 18.301C14.9739 18.595 15.0226 18.8941 15.1532 19.1604C15.2838 19.4268 15.4905 19.6484 15.7471 19.7973C16.0036 19.9462 16.2986 20.0157 16.5946 19.997C16.8907 19.9783 17.1746 19.8722 17.4103 19.6922C17.6461 19.5121 17.8232 19.2662 17.9192 18.9856C18.0153 18.7049 18.0259 18.402 17.9498 18.1153C17.8993 17.9249 17.8117 17.7462 17.6922 17.5897C17.5726 17.4331 17.4233 17.3016 17.2529 17.2027C17.0825 17.1038 16.8943 17.0394 16.699 17.0133C16.5038 16.9871 16.3052 16.9997 16.1148 17.0503Z" fill="#7C7C7C"/>
<path d="M16.1148 23.0503C15.8281 23.1265 15.5704 23.2859 15.3744 23.5086C15.1783 23.7312 15.0526 24.0069 15.0133 24.301C14.9739 24.595 15.0226 24.8941 15.1532 25.1604C15.2838 25.4268 15.4905 25.6484 15.7471 25.7973C16.0036 25.9462 16.2986 26.0157 16.5946 25.997C16.8907 25.9783 17.1746 25.8722 17.4103 25.6922C17.6461 25.5121 17.8232 25.2662 17.9192 24.9856C18.0153 24.7049 18.0259 24.402 17.9498 24.1153C17.8993 23.9249 17.8117 23.7462 17.6922 23.5897C17.5726 23.4331 17.4233 23.3016 17.2529 23.2027C17.0825 23.1038 16.8943 23.0394 16.699 23.0133C16.5038 22.9871 16.3052 22.9997 16.1148 23.0503Z" fill="#7C7C7C"/>
<path d="M21.501 9.00676C19.891 8.95078 18.2862 9.21955 16.7823 9.79705C15.2783 10.3746 13.9061 11.249 12.7473 12.3681C11.5886 13.4873 10.6671 14.8284 10.0377 16.3113C9.40829 17.7943 9.08395 19.3888 9.08398 20.9998C9.08769 24.1812 10.3532 27.2313 12.6028 29.4809C14.8524 31.7306 17.9025 32.9961 21.084 32.9998C21.422 32.9998 21.754 32.9778 22.084 32.9498C22.3344 32.9287 22.5677 32.8141 22.7374 32.6288C22.9071 32.4435 23.0009 32.201 23 31.9498L22.968 28.3618C22.9599 27.6527 23.1633 26.9574 23.5522 26.3645C23.9412 25.7716 24.498 25.3081 25.1516 25.0331C25.8052 24.7582 26.5259 24.6842 27.2217 24.8208C27.9175 24.9573 28.5568 25.2982 29.058 25.7998L29.158 25.8998C29.385 26.1287 29.6662 26.2965 29.9755 26.3876C30.2848 26.4787 30.6121 26.4901 30.927 26.4208C31.2368 26.3557 31.5252 26.2139 31.7659 26.0082C32.0065 25.8025 32.1915 25.5397 32.304 25.2438C32.8561 23.7941 33.12 22.2505 33.081 20.6998C32.9684 17.6538 31.7156 14.7612 29.5708 12.5955C27.426 10.4297 24.5457 9.14887 21.501 9.00676ZM30.483 24.4068L30.469 24.3928C29.6873 23.6124 28.6912 23.0822 27.6074 22.8696C26.5235 22.657 25.4009 22.7716 24.3824 23.1989C23.3638 23.6261 22.4954 24.3467 21.8876 25.2689C21.2798 26.1911 20.96 27.2733 20.969 28.3778L20.993 30.9998C18.3408 30.9878 15.802 29.9228 13.9351 28.039C12.0682 26.1552 11.026 23.6069 11.038 20.9548C11.0499 18.3026 12.1149 15.7638 13.9987 13.8969C15.8825 12.0299 18.4308 10.9878 21.083 10.9998C21.2 10.9998 21.318 10.9998 21.436 11.0058C23.9724 11.1249 26.3715 12.1925 28.1578 13.997C29.9442 15.8015 30.9875 18.2113 31.081 20.7488C31.114 21.9923 30.9121 23.231 30.486 24.3998L30.483 24.4068Z" fill="#7C7C7C"/>
</g>
<defs>
<clipPath id="clip0_40000045_1015">
<rect width="24" height="24" fill="white" transform="translate(9 9)"/>
</clipPath>
</defs>
</svg>
