<svg width="42" height="42" viewBox="0 0 42 42" fill="none" xmlns="http://www.w3.org/2000/svg">
<path d="M20 18.5V22C20 24.206 18.206 26 16 26C15.447 26 15 25.553 15 25C15 24.447 15.447 24 16 24C17.103 24 18 23.103 18 22H16.5C15.672 22 15 21.328 15 20.5V19C15 17.895 15.895 17 17 17H18.5C19.328 17 20 17.672 20 18.5ZM25.5 17H24C22.895 17 22 17.895 22 19V20.5C22 21.328 22.672 22 23.5 22H25C25 23.103 24.103 24 23 24C22.447 24 22 24.447 22 25C22 25.553 22.447 26 23 26C25.206 26 27 24.206 27 22V18.5C27 17.672 26.328 17 25.5 17ZM33 14V28C33 30.757 30.757 33 28 33H14C11.243 33 9 30.757 9 28V14C9 11.243 11.243 9 14 9H28C30.757 9 33 11.243 33 14ZM31 14C31 12.346 29.654 11 28 11H14C12.346 11 11 12.346 11 14V28C11 29.654 12.346 31 14 31H28C29.654 31 31 29.654 31 28V14Z" fill="#7C7C7C"/>
</svg>
