<svg xmlns="http://www.w3.org/2000/svg" xmlns:xlink="http://www.w3.org/1999/xlink" width="215" height="216" viewBox="0 0 215 216">
  <defs>
    <linearGradient id="combined-shape-c" x1="63.965%" x2="87.217%" y1="0%" y2="45.295%">
      <stop offset="0%" stop-color="#26B7FF"/>
      <stop offset="42.431%" stop-color="#068BF0"/>
      <stop offset="100%" stop-color="#28B7FE"/>
    </linearGradient>
    <path id="combined-shape-b" d="M242,520 L217,520 C212.581722,520 209,523.581722 209,528 L209,551.984672 C191.789598,551.456376 178,537.338555 178,520 C178,502.326888 192.326888,488 210,488 C227.673112,488 242,502.326888 242,520 Z M242,648 C242,665.673112 227.673112,680 210,680 C192.326888,680 178,665.673112 178,648 C178,630.661445 191.789598,616.543624 209,616.015328 L209,640 C209,644.418278 212.581722,648 217,648 L242,648 Z M337,552 L337,528 C337,523.581722 333.418278,520 329,520 L305,520 C305,502.326888 319.326888,488 337,488 C354.673112,488 369,502.326888 369,520 C369,537.673112 354.673112,552 337,552 Z M305,648 L329,648 C333.418278,648 337,644.418278 337,640 L337,616 C354.673112,616 369,630.326888 369,648 C369,665.673112 354.673112,680 337,680 C319.326888,680 305,665.673112 305,648 Z"/>
    <filter id="combined-shape-a" width="121.5%" height="121.4%" x="-10.2%" y="-8.1%" filterUnits="objectBoundingBox">
      <feOffset dx="1" dy="5" in="SourceAlpha" result="shadowOffsetOuter1"/>
      <feGaussianBlur in="shadowOffsetOuter1" result="shadowBlurOuter1" stdDeviation="6"/>
      <feComposite in="shadowBlurOuter1" in2="SourceAlpha" operator="out" result="shadowBlurOuter1"/>
      <feColorMatrix in="shadowBlurOuter1" values="0 0 0 0 0   0 0 0 0 0   0 0 0 0 0  0 0 0 0.05 0"/>
    </filter>
  </defs>
  <g fill="none" fill-rule="evenodd" transform="translate(-167 -481)">
    <use fill="#000" filter="url(#combined-shape-a)" xlink:href="#combined-shape-b"/>
    <path fill="#040000" stroke="url(#combined-shape-c)" stroke-linejoin="square" d="M241.496112,519.5 C241.228979,502.333612 227.229996,488.5 210,488.5 C192.60303,488.5 178.5,502.60303 178.5,520 C178.5,536.857533 191.763644,550.680878 208.5,551.46493 L208.5,528 C208.5,523.30558 212.30558,519.5 217,519.5 L241.496112,519.5 Z M241.496112,648.5 L217,648.5 C212.30558,648.5 208.5,644.69442 208.5,640 L208.5,616.53507 C191.763644,617.319122 178.5,631.142467 178.5,648 C178.5,665.39697 192.60303,679.5 210,679.5 C227.229996,679.5 241.228979,665.666388 241.496112,648.5 Z M337.5,551.496112 C354.666388,551.228979 368.5,537.229996 368.5,520 C368.5,502.60303 354.39697,488.5 337,488.5 C319.770004,488.5 305.771021,502.333612 305.503888,519.5 L329,519.5 C333.69442,519.5 337.5,523.30558 337.5,528 L337.5,551.496112 Z M305.503888,648.5 C305.771021,665.666388 319.770004,679.5 337,679.5 C354.39697,679.5 368.5,665.39697 368.5,648 C368.5,630.770004 354.666388,616.771021 337.5,616.503888 L337.5,640 C337.5,644.69442 333.69442,648.5 329,648.5 L305.503888,648.5 Z"/>
  </g>
</svg>
