<svg width="62" height="34" viewBox="0 0 62 34" fill="none" xmlns="http://www.w3.org/2000/svg">
<path d="M53.999 0.602417C58.1412 0.602417 61.499 3.96028 61.499 8.10242V25.1649C61.499 29.3071 58.1412 32.6649 53.999 32.6649H0.541016V0.602417H53.999Z" fill="white"/>
<path d="M53.999 0.602417C58.1412 0.602417 61.499 3.96028 61.499 8.10242V25.1649C61.499 29.3071 58.1412 32.6649 53.999 32.6649H0.541016V0.602417H53.999Z" stroke="#CCCCCC"/>
<path d="M50.2803 21.4799V23.3969H11.2803V21.4799H50.2803ZM20.8633 9.87048V19.5883H11.2803L11.2793 9.87048H20.8633ZM50.2803 16.3705V19.5638L24.8008 19.4291V16.2367L50.2803 16.3705ZM50.7598 14.1244H24.7598V9.87439H50.7598V14.1244Z" fill="black"/>
</svg>
