<svg width="62" height="34" viewBox="0 0 62 34" fill="none" xmlns="http://www.w3.org/2000/svg">
<path d="M8 0.672119H61.458V32.7346H8C3.85787 32.7346 0.5 29.3768 0.5 25.2346V8.17212C0.5 4.02998 3.85786 0.672119 8 0.672119Z" fill="white"/>
<path d="M8 0.672119H61.458V32.7346H8C3.85787 32.7346 0.5 29.3768 0.5 25.2346V8.17212C0.5 4.02998 3.85786 0.672119 8 0.672119Z" stroke="#CCCCCC"/>
<g clip-path="url(#clip0_40000128_14233)">
<path d="M25.0006 21.562H50.4797V19.6454H25.0006V21.562ZM25.0006 17.5947L50.4797 17.7287V11.9787L25.0006 11.8447V17.5947ZM11.4795 11.8452L11.4795 21.562H21.0628V11.8452H11.4795Z" fill="black"/>
</g>
<defs>
<clipPath id="clip0_40000128_14233">
<rect width="39" height="9.71731" fill="white" transform="translate(11.4795 11.8447)"/>
</clipPath>
</defs>
</svg>
