<svg width="42" height="42" viewBox="0 0 42 42" fill="none" xmlns="http://www.w3.org/2000/svg">
<rect width="42" height="42" rx="21" fill="#E5F2EB"/>
<g clip-path="url(#clip0_40000045_21612)">
<path d="M29.056 25.7995L29.156 25.8995C29.383 26.1285 29.6643 26.2963 29.9736 26.3874C30.2829 26.4785 30.6102 26.4899 30.925 26.4205C31.2348 26.3555 31.5233 26.2136 31.7639 26.0079C32.0045 25.8023 32.1896 25.5394 32.302 25.2435C32.8541 23.7938 33.1181 22.2503 33.079 20.6995C32.9665 17.6535 31.7136 14.761 29.5688 12.5952C27.424 10.4295 24.5438 9.14863 21.499 9.00652C19.889 8.95053 18.2842 9.21931 16.7803 9.79681C15.2764 10.3743 13.9041 11.2487 12.7454 12.3679C11.5866 13.4871 10.6651 14.8281 10.0357 16.3111C9.40634 17.794 9.082 19.3885 9.08203 20.9995C9.08574 24.181 10.3512 27.2311 12.6008 29.4807C14.8505 31.7303 17.9006 32.9958 21.082 32.9995C21.42 32.9995 21.752 32.9775 22.082 32.9495C22.3324 32.9284 22.5657 32.8138 22.7354 32.6285C22.9052 32.4432 22.9989 32.2008 22.998 31.9495L22.966 28.3615C22.9579 27.6525 23.1613 26.9571 23.5503 26.3642C23.9392 25.7714 24.496 25.3078 25.1496 25.0329C25.8032 24.7579 26.5239 24.684 27.2197 24.8205C27.9155 24.9571 28.5548 25.2979 29.056 25.7995ZM26.114 17.0495C26.4008 16.9734 26.7036 16.9841 26.9843 17.0801C27.265 17.1761 27.5109 17.3532 27.6909 17.589C27.8709 17.8248 27.977 18.1086 27.9957 18.4047C28.0145 18.7008 27.945 18.9957 27.7961 19.2523C27.6472 19.5089 27.4255 19.7155 27.1592 19.8461C26.8928 19.9767 26.5937 20.0254 26.2997 19.9861C26.0057 19.9467 25.7299 19.821 25.5073 19.625C25.2847 19.4289 25.1252 19.1712 25.049 18.8845C24.9984 18.6941 24.9859 18.4956 25.012 18.3003C25.0381 18.105 25.1025 17.9168 25.2014 17.7464C25.3003 17.576 25.4318 17.4267 25.5884 17.3072C25.745 17.1876 25.9236 17.1 26.114 17.0495ZM16.884 25.9495C16.5973 26.0256 16.2945 26.015 16.0138 25.9189C15.7331 25.8229 15.4872 25.6458 15.3072 25.41C15.1271 25.1743 15.021 24.8904 15.0023 24.5943C14.9836 24.2983 15.0531 24.0033 15.202 23.7467C15.3509 23.4902 15.5725 23.2835 15.8389 23.1529C16.1052 23.0223 16.4043 22.9736 16.6984 23.013C16.9924 23.0523 17.2682 23.178 17.4908 23.3741C17.7134 23.5701 17.8729 23.8278 17.949 24.1145C17.9996 24.3049 18.0122 24.5035 17.9861 24.6987C17.9599 24.894 17.8956 25.0822 17.7967 25.2526C17.6978 25.423 17.5663 25.5723 17.4097 25.6919C17.2531 25.8114 17.0745 25.899 16.884 25.9495ZM16.884 19.9495C16.5973 20.0256 16.2945 20.015 16.0138 19.9189C15.7331 19.8229 15.4872 19.6458 15.3072 19.41C15.1271 19.1743 15.021 18.8904 15.0023 18.5943C14.9836 18.2983 15.0531 18.0033 15.202 17.7467C15.3509 17.4902 15.5725 17.2835 15.8389 17.1529C16.1052 17.0223 16.4043 16.9736 16.6984 17.013C16.9924 17.0523 17.2682 17.178 17.4908 17.3741C17.7134 17.5701 17.8729 17.8278 17.949 18.1145C17.9996 18.3049 18.0122 18.5035 17.9861 18.6987C17.9599 18.894 17.8956 19.0822 17.7967 19.2526C17.6978 19.423 17.5663 19.5723 17.4097 19.6919C17.2531 19.8114 17.0745 19.899 16.884 19.9495ZM21.884 16.9495C21.5973 17.0256 21.2945 17.015 21.0138 16.9189C20.7331 16.8229 20.4872 16.6458 20.3072 16.41C20.1271 16.1743 20.021 15.8904 20.0023 15.5943C19.9836 15.2983 20.0531 15.0033 20.202 14.7467C20.3509 14.4902 20.5725 14.2835 20.8389 14.1529C21.1052 14.0223 21.4043 13.9736 21.6984 14.013C21.9924 14.0523 22.2682 14.178 22.4908 14.3741C22.7134 14.5701 22.8729 14.8278 22.949 15.1145C22.9996 15.3049 23.0122 15.5035 22.9861 15.6987C22.9599 15.894 22.8956 16.0822 22.7967 16.2526C22.6978 16.423 22.5663 16.5723 22.4097 16.6919C22.2531 16.8114 22.0745 16.899 21.884 16.9495Z" fill="#006128"/>
</g>
<defs>
<clipPath id="clip0_40000045_21612">
<rect width="24" height="24" fill="white" transform="translate(9 9)"/>
</clipPath>
</defs>
</svg>
