<svg width="43" height="42" viewBox="0 0 43 42" fill="none" xmlns="http://www.w3.org/2000/svg">
<rect x="0.859375" width="42" height="42" rx="21" fill="#E5F2EB"/>
<g clip-path="url(#clip0_40000045_3814)">
<path d="M28.8594 9H14.8594C12.1024 9 9.85938 11.243 9.85938 14V28C9.85938 30.757 12.1024 33 14.8594 33H28.8594C31.6164 33 33.8594 30.757 33.8594 28V14C33.8594 11.243 31.6164 9 28.8594 9ZM20.8594 22C20.8594 24.206 19.0654 26 16.8594 26C16.3064 26 15.8594 25.553 15.8594 25C15.8594 24.447 16.3064 24 16.8594 24C17.9624 24 18.8594 23.103 18.8594 22H17.3594C16.5314 22 15.8594 21.328 15.8594 20.5V19C15.8594 17.895 16.7544 17 17.8594 17H19.3594C20.1874 17 20.8594 17.672 20.8594 18.5V22ZM27.8594 22C27.8594 24.206 26.0654 26 23.8594 26C23.3064 26 22.8594 25.553 22.8594 25C22.8594 24.447 23.3064 24 23.8594 24C24.9624 24 25.8594 23.103 25.8594 22H24.3594C23.5314 22 22.8594 21.328 22.8594 20.5V19C22.8594 17.895 23.7544 17 24.8594 17H26.3594C27.1874 17 27.8594 17.672 27.8594 18.5V22Z" fill="#006128"/>
</g>
<defs>
<clipPath id="clip0_40000045_3814">
<rect width="24" height="24" fill="white" transform="translate(9.85938 9)"/>
</clipPath>
</defs>
</svg>
