<svg width="359" height="327" viewBox="0 0 359 327" fill="none" xmlns="http://www.w3.org/2000/svg">
<path d="M170.62 326.363C264.424 326.363 340.468 321.923 340.468 316.446C340.468 310.97 264.424 306.53 170.62 306.53C76.8157 306.53 0.772339 310.97 0.772339 316.446C0.772339 321.923 76.8157 326.363 170.62 326.363Z" fill="#F5F5F5"/>
<path d="M228.278 69.8347V165.398H143.63V47.2777H205.712L228.278 69.8347Z" fill="#3C37A4"/>
<path opacity="0.8" d="M228.278 69.8347V165.398H143.63V47.2777H205.712L228.278 69.8347Z" fill="white"/>
<path opacity="0.2" d="M228.278 111.103H143.63V116.876H228.278V111.103Z" fill="#3C37A4"/>
<path d="M228.278 69.8347H205.713V47.2777L228.278 69.8347Z" fill="#3C37A4"/>
<path d="M204.407 241.329H142.886C142.886 241.329 146.749 291.988 135.431 312.522H211.853C200.544 291.988 204.407 241.329 204.407 241.329Z" fill="#3C37A4"/>
<path opacity="0.2" d="M205.607 290.666C202.357 268.144 204.407 241.329 204.407 241.329H142.886C142.886 241.329 144.725 265.472 142.141 287.179L205.607 290.666Z" fill="black"/>
<path d="M220.736 310.743H126.557C125.721 310.746 124.921 311.079 124.33 311.67C123.739 312.261 123.406 313.061 123.404 313.897H223.89C223.887 313.061 223.554 312.261 222.963 311.67C222.372 311.079 221.572 310.746 220.736 310.743Z" fill="#3C37A4"/>
<path d="M309.492 213.56H308.59V219.727H309.492V213.56Z" fill="#3C37A4"/>
<path d="M309.492 190.32H308.59V207.997H309.492V190.32Z" fill="#3C37A4"/>
<path d="M300.137 115.439H47.1565C43.736 115.439 40.9631 118.212 40.9631 121.633V274.836C40.9631 278.257 43.736 281.03 47.1565 281.03H300.137C303.557 281.03 306.33 278.257 306.33 274.836V121.633C306.33 118.212 303.557 115.439 300.137 115.439Z" fill="#3C37A4"/>
<path d="M297.692 119.416H49.5918C46.9841 119.416 44.8701 121.53 44.8701 124.138V236.608C44.8701 239.215 46.9841 241.329 49.5918 241.329H297.692C300.3 241.329 302.414 239.215 302.414 236.608V124.138C302.414 121.53 300.3 119.416 297.692 119.416Z" fill="white"/>
<path opacity="0.9" d="M40.9719 245.28V274.819C40.9765 276.46 41.6305 278.033 42.791 279.193C43.9515 280.353 45.5241 281.007 47.1652 281.012H300.137C301.778 281.007 303.35 280.353 304.511 279.193C305.671 278.033 306.325 276.46 306.33 274.819V245.28H40.9719Z" fill="white"/>
<path opacity="0.5" d="M173.642 269.133C176.937 269.133 179.608 266.463 179.608 263.168C179.608 259.873 176.937 257.202 173.642 257.202C170.347 257.202 167.677 259.873 167.677 263.168C167.677 266.463 170.347 269.133 173.642 269.133Z" fill="#3C37A4"/>
<path opacity="0.4" d="M111.376 97.3674V183.61H197.618L111.376 97.3674ZM130.324 143.13L151.856 164.688H130.324V143.13Z" fill="#3C37A4"/>
<path d="M210.206 197.363V215.111C210.213 217.981 211.356 220.732 213.385 222.762C215.414 224.793 218.163 225.937 221.034 225.947H283.624C286.495 225.937 289.246 224.793 291.276 222.763C293.306 220.733 294.451 217.982 294.46 215.111V152.529C294.451 149.659 293.306 146.909 291.275 144.88C289.245 142.851 286.494 141.709 283.624 141.702H221.034C218.164 141.709 215.414 142.852 213.385 144.881C211.356 146.91 210.213 149.66 210.206 152.529V171.985" fill="white"/>
<path d="M283.624 226.393H280.12V225.517H283.72V226.393H283.624ZM276.546 226.393H272.937V225.517H276.546V226.393ZM269.319 226.393H265.71V225.517H269.319V226.393ZM262.101 226.393H258.483V225.517H262.092L262.101 226.393ZM254.882 226.393H251.273V225.517H254.882V226.393ZM247.664 226.393H244.046V225.517H247.664V226.393ZM240.437 226.393H236.828V225.517H240.437V226.393ZM233.219 226.393H229.61V225.517H233.219V226.393ZM226.001 226.393H222.383V225.517H226.001V226.393ZM218.704 226.148C217.466 225.888 216.281 225.42 215.2 224.764L215.673 223.993C216.658 224.596 217.739 225.026 218.87 225.263L218.704 226.148ZM287.452 225.719L287.145 224.843C288.231 224.445 289.243 223.871 290.141 223.143L290.711 223.844C289.735 224.649 288.63 225.283 287.443 225.719H287.452ZM212.388 222.329C211.58 221.365 210.941 220.272 210.495 219.096L211.371 218.781C211.788 219.861 212.38 220.864 213.123 221.751L212.388 222.329ZM293.19 221.076L292.428 220.594C293.042 219.616 293.487 218.541 293.742 217.414L294.618 217.616C294.338 218.842 293.853 220.012 293.181 221.076H293.19ZM209.768 215.426C209.768 215.321 209.768 215.216 209.768 215.111V211.808H210.644V215.4L209.768 215.426ZM294.907 213.928H294.031V210.319H294.907V213.928ZM210.662 208.19H209.786V204.581H210.662V208.19ZM294.898 206.736H294.022V203.127H294.898V206.736ZM210.653 200.998H209.777V197.363H210.653V200.998ZM294.898 199.509H294.022V195.874H294.898V199.509ZM294.898 192.291H294.022V188.682H294.898V192.291ZM294.898 185.072H294.022V181.463H294.898V185.072ZM294.898 177.854H294.022V174.236H294.898V177.854ZM210.653 171.477H209.777V167.859H210.653V171.477ZM294.898 170.601H294.022V166.992H294.898V170.601ZM210.653 164.224H209.777V160.615H210.653V164.224ZM294.898 163.348H294.022V159.739H294.898V163.348ZM210.653 156.97H209.777V153.361H210.653V156.97ZM294.898 156.094H294.022V152.477H294.898V156.094ZM210.986 149.857L210.11 149.63C210.425 148.411 210.947 147.256 211.652 146.213L212.396 146.721C211.745 147.701 211.268 148.785 210.986 149.927V149.857ZM293.426 149.086C293.052 147.991 292.492 146.969 291.771 146.064L292.48 145.504C293.261 146.49 293.871 147.6 294.285 148.789L293.426 149.086ZM214.762 144.207L214.21 143.489C215.209 142.726 216.328 142.134 217.521 141.737L217.801 142.613C216.703 142.996 215.676 143.559 214.762 144.277V144.207ZM289.222 143.743C288.252 143.112 287.183 142.65 286.059 142.376L286.278 141.5C287.517 141.816 288.693 142.34 289.756 143.051L289.222 143.743ZM282.581 142.078H278.981V141.202H282.59L282.581 142.078ZM275.363 142.078H271.754V141.202H275.363V142.078ZM268.145 142.078H264.527V141.202H268.145V142.078ZM260.918 142.078H257.344V141.202H260.953L260.918 142.078ZM253.7 142.078H250.091V141.202H253.7V142.078ZM246.482 142.078H242.864V141.202H246.482V142.078ZM239.255 142.078H235.645V141.202H239.255V142.078ZM232.036 142.078H228.436V141.202H232.045L232.036 142.078ZM224.818 142.078H221.209V141.202H224.818V142.078Z" fill="#3C37A4"/>
<path d="M210.355 185.598V174.596C209.022 177.431 208.317 180.521 208.288 183.653L209.768 185.134V186.194L207.57 188.393C207.577 188.248 207.555 188.104 207.506 187.969C207.456 187.833 207.379 187.709 207.281 187.604C206.755 187.07 205.66 187.306 204.845 188.121C204.031 188.936 203.794 190.022 204.328 190.556C204.863 191.091 205.949 190.854 206.764 190.039L209.768 187.035V191.844C209.768 193 210.373 193.938 211.117 193.938C211.862 193.938 212.475 193 212.475 191.844C212.475 190.688 211.871 189.759 211.117 189.759C210.974 189.764 210.833 189.798 210.703 189.86C210.574 189.922 210.458 190.01 210.364 190.118V186.465L211.494 185.335H213.544C215.738 183.095 217.421 180.405 218.476 177.451L210.355 185.598ZM206.483 189.768C205.905 190.355 205.117 190.521 204.731 190.145C204.346 189.768 204.521 188.98 205.108 188.393C205.695 187.806 206.475 187.639 206.86 188.016C207.245 188.393 207.079 189.216 206.483 189.768ZM211.109 190.32C211.652 190.32 212.09 190.986 212.09 191.818C212.09 192.65 211.652 193.324 211.109 193.324C210.566 193.324 210.136 192.65 210.136 191.818C210.136 190.986 210.574 190.32 211.109 190.32Z" fill="#3C37A4"/>
<path d="M176.428 205.799C175.435 204.796 174.878 203.443 174.878 202.032C174.878 200.621 175.435 199.267 176.428 198.265L179.809 194.884C180.811 193.886 182.167 193.326 183.58 193.326C184.994 193.326 186.35 193.886 187.352 194.884C188.349 195.884 188.909 197.238 188.909 198.65C188.909 200.063 188.349 201.417 187.352 202.417L183.97 205.799C182.969 206.796 181.613 207.356 180.199 207.356C178.785 207.356 177.429 206.796 176.428 205.799Z" fill="#263238"/>
<path d="M159.328 229.293L180.072 208.549L173.686 202.163L152.942 222.907C152.699 223.148 152.538 223.46 152.482 223.798C152.425 224.136 152.476 224.483 152.627 224.79C152.741 225.012 152.801 225.259 152.801 225.509C152.801 225.759 152.741 226.005 152.627 226.227C152.369 226.697 152.271 227.238 152.347 227.769C152.423 228.299 152.669 228.791 153.047 229.17C153.428 229.549 153.921 229.795 154.453 229.872C154.984 229.95 155.526 229.854 156 229.6C156.222 229.485 156.468 229.425 156.718 229.425C156.968 229.425 157.214 229.485 157.436 229.6C157.743 229.755 158.092 229.809 158.432 229.754C158.772 229.699 159.086 229.538 159.328 229.293Z" fill="white"/>
<path d="M154.852 230.8C154.264 230.801 153.687 230.649 153.176 230.359C152.665 230.07 152.238 229.652 151.937 229.148C151.635 228.643 151.47 228.07 151.458 227.482C151.445 226.895 151.585 226.315 151.865 225.798C151.914 225.705 151.939 225.601 151.939 225.496C151.939 225.39 151.914 225.287 151.865 225.193C151.63 224.716 151.55 224.178 151.636 223.653C151.723 223.129 151.971 222.644 152.347 222.268L173.09 201.524C173.172 201.436 173.271 201.367 173.381 201.319C173.491 201.271 173.61 201.247 173.73 201.247C173.85 201.247 173.968 201.271 174.078 201.319C174.188 201.367 174.287 201.436 174.369 201.524L180.746 207.91C180.834 207.992 180.904 208.091 180.951 208.201C180.999 208.311 181.024 208.429 181.024 208.549C181.024 208.669 180.999 208.788 180.951 208.898C180.904 209.008 180.834 209.107 180.746 209.189L160.003 229.933C159.628 230.308 159.145 230.557 158.622 230.643C158.098 230.73 157.561 230.65 157.086 230.414C156.992 230.367 156.888 230.343 156.783 230.343C156.679 230.343 156.575 230.367 156.481 230.414C155.98 230.68 155.419 230.813 154.852 230.8ZM173.712 203.442L153.608 223.546C153.49 223.656 153.412 223.801 153.386 223.96C153.361 224.119 153.39 224.282 153.468 224.422C153.649 224.773 153.744 225.162 153.744 225.557C153.744 225.952 153.649 226.341 153.468 226.691C153.307 226.991 153.247 227.335 153.297 227.672C153.347 228.008 153.504 228.32 153.744 228.561C153.985 228.801 154.297 228.958 154.634 229.008C154.97 229.058 155.314 228.998 155.614 228.838C155.965 228.656 156.354 228.562 156.748 228.562C157.143 228.562 157.532 228.656 157.883 228.838C158.024 228.913 158.186 228.94 158.344 228.914C158.502 228.889 158.648 228.813 158.759 228.697L178.907 208.593L173.712 203.442Z" fill="#3C37A4"/>
<path d="M171.995 198.747C172.488 198.257 173.154 197.983 173.848 197.983C174.542 197.983 175.208 198.257 175.701 198.747L183.488 206.534C183.975 207.027 184.248 207.691 184.248 208.383C184.248 209.075 183.975 209.739 183.488 210.231C182.996 210.718 182.332 210.991 181.64 210.991C180.948 210.991 180.284 210.718 179.792 210.231L171.995 202.444C171.508 201.952 171.235 201.287 171.235 200.595C171.235 199.903 171.508 199.239 171.995 198.747Z" fill="#263238"/>
<path d="M271.907 115.57L257.703 101.366C257.098 100.761 256.116 100.761 255.511 101.366L249.056 107.821C248.451 108.426 248.451 109.408 249.056 110.014L263.26 124.217C263.865 124.823 264.847 124.823 265.453 124.217L271.907 117.763C272.512 117.157 272.512 116.175 271.907 115.57Z" fill="#263238"/>
<path d="M294.942 78.3407L266.682 106.6L261.917 101.826C266.043 97.7003 263.669 88.073 263.669 88.073L271.509 80.2328C284.193 78.4808 310.929 59.4979 310.929 59.4979L311.805 60.3739L295.012 77.088C294.924 77.1648 294.852 77.2585 294.801 77.3635C294.749 77.4686 294.719 77.5828 294.713 77.6996C294.706 77.8163 294.723 77.9332 294.763 78.0433C294.802 78.1534 294.863 78.2545 294.942 78.3407Z" fill="#3C37A4"/>
<path d="M293.041 101.791L285.201 109.675C285.201 109.675 275.565 107.275 271.448 111.427L266.682 106.662L294.942 78.402C295.03 78.4795 295.132 78.5386 295.243 78.5758C295.354 78.613 295.472 78.6275 295.589 78.6185C295.705 78.6095 295.819 78.5772 295.923 78.5235C296.027 78.4697 296.12 78.3957 296.195 78.3056L312.944 61.5565L313.82 62.4325C313.82 62.4325 294.819 89.1155 293.041 101.791Z" fill="#3C37A4"/>
<path opacity="0.2" d="M293.041 101.791L285.201 109.675C285.201 109.675 275.565 107.275 271.448 111.427L266.682 106.662L294.942 78.402C295.03 78.4795 295.132 78.5386 295.243 78.5758C295.354 78.613 295.472 78.6275 295.589 78.6185C295.705 78.6095 295.819 78.5772 295.923 78.5235C296.027 78.4697 296.12 78.3957 296.195 78.3056L312.944 61.5565L313.82 62.4325C313.82 62.4325 294.819 89.1155 293.041 101.791Z" fill="white"/>
<path d="M316.912 118.164L316.404 117.655C320.493 113.662 323.749 108.897 325.983 103.636C328.217 98.3753 329.384 92.7234 329.418 87.008C329.452 81.2926 328.351 75.6274 326.179 70.3405C324.008 65.0537 320.809 60.2503 316.767 56.2089C312.726 52.1674 307.922 48.9682 302.635 46.7966C297.349 44.625 291.683 43.5242 285.968 43.5579C280.253 43.5917 274.601 44.7594 269.34 46.9933C264.079 49.2273 259.314 52.4831 255.32 56.572L254.812 56.0639C258.873 51.9105 263.717 48.6039 269.065 46.3356C274.412 44.0674 280.156 42.8825 285.965 42.8497C291.773 42.8169 297.531 43.9367 302.904 46.1444C308.276 48.3521 313.158 51.6038 317.265 55.7111C321.372 59.8184 324.624 64.6997 326.832 70.0724C329.039 75.4452 330.159 81.2025 330.126 87.011C330.093 92.8195 328.909 98.5638 326.64 103.911C324.372 109.259 321.065 114.103 316.912 118.164Z" fill="#3C37A4"/>
<path d="M277.919 17.0337L277.411 17.5416L355.465 95.5954L355.973 95.0875L277.919 17.0337Z" fill="#3C37A4"/>
<path d="M319.915 56.311L316.693 53.09L313.472 56.311L316.693 59.532L319.915 56.311Z" fill="#3C37A4"/>
<path d="M316.693 60.1198L312.891 56.318L316.693 52.5161L320.504 56.318L316.693 60.1198ZM314.065 56.318L316.693 58.946L319.321 56.318L316.693 53.69L314.065 56.318Z" fill="#3C37A4"/>
<path d="M258.317 56.3139L255.096 53.0929L251.875 56.3139L255.096 59.5349L258.317 56.3139Z" fill="white"/>
<path d="M255.101 60.1198L251.3 56.318L255.101 52.5161L258.903 56.318L255.101 60.1198ZM252.473 56.318L255.101 58.946L257.729 56.318L255.101 53.69L252.473 56.318Z" fill="#3C37A4"/>
<path d="M320.055 118.039L316.834 114.818L313.613 118.039L316.834 121.26L320.055 118.039Z" fill="white"/>
<path d="M316.833 121.843L313.031 118.041L316.833 114.239L320.635 118.041L316.833 121.843ZM314.205 118.041L316.833 120.669L319.461 118.041L316.833 115.413L314.205 118.041Z" fill="#3C37A4"/>
<path d="M357.471 97.0871C357.152 97.4052 356.746 97.6218 356.305 97.7094C355.863 97.7969 355.405 97.7516 354.989 97.5791C354.573 97.4066 354.218 97.1147 353.968 96.7402C353.717 96.3657 353.584 95.9255 353.584 95.4752C353.584 95.0249 353.717 94.5847 353.968 94.2103C354.218 93.8358 354.573 93.5439 354.989 93.3714C355.405 93.1989 355.863 93.1535 356.305 93.2411C356.746 93.3287 357.152 93.5452 357.471 93.8634C357.897 94.2918 358.136 94.8712 358.136 95.4752C358.136 96.0792 357.897 96.6587 357.471 97.0871Z" fill="white"/>
<path d="M355.859 98.1645C355.237 98.1649 354.634 97.9494 354.153 97.555C353.671 97.1605 353.342 96.6114 353.22 96.0012C353.098 95.391 353.192 94.7575 353.485 94.2086C353.778 93.6597 354.252 93.2294 354.827 92.9911C355.402 92.7527 356.042 92.721 356.637 92.9014C357.233 93.0817 357.747 93.463 358.093 93.9802C358.439 94.4974 358.595 95.1185 358.534 95.7378C358.473 96.357 358.2 96.936 357.76 97.3761C357.511 97.6267 357.215 97.8254 356.888 97.9607C356.562 98.096 356.212 98.1653 355.859 98.1645ZM355.859 93.6093C355.427 93.6109 355.01 93.762 354.677 94.037C354.344 94.312 354.117 94.6938 354.034 95.1173C353.952 95.5409 354.018 95.9801 354.223 96.3601C354.428 96.74 354.758 97.0373 355.157 97.2012C355.556 97.3652 356 97.3856 356.413 97.2591C356.825 97.1326 357.181 96.867 357.42 96.5074C357.659 96.1479 357.766 95.7167 357.722 95.2873C357.679 94.8579 357.488 94.4569 357.182 94.1524C356.829 93.8046 356.354 93.6094 355.859 93.6093Z" fill="#3C37A4"/>
<path d="M279.244 18.8953C278.926 19.2147 278.52 19.4325 278.078 19.5211C277.636 19.6096 277.178 19.565 276.761 19.3929C276.344 19.2208 275.988 18.9289 275.737 18.5541C275.487 18.1794 275.353 17.7387 275.353 17.2879C275.353 16.837 275.487 16.3963 275.737 16.0216C275.988 15.6469 276.344 15.3549 276.761 15.1828C277.178 15.0107 277.636 14.9661 278.078 15.0546C278.52 15.1432 278.926 15.361 279.244 15.6804C279.669 16.1073 279.908 16.6853 279.908 17.2879C279.908 17.8904 279.669 18.4684 279.244 18.8953Z" fill="white"/>
<path d="M277.667 19.9728C277.135 19.9728 276.615 19.815 276.173 19.5195C275.731 19.224 275.386 18.804 275.183 18.3126C274.979 17.8212 274.926 17.2805 275.03 16.7588C275.133 16.2371 275.389 15.7579 275.766 15.3818C276.142 15.0057 276.621 14.7496 277.143 14.6458C277.664 14.542 278.205 14.5953 278.696 14.7988C279.188 15.0024 279.608 15.3471 279.903 15.7893C280.199 16.2316 280.357 16.7515 280.357 17.2834C280.36 17.637 280.292 17.9876 280.156 18.3143C280.021 18.6409 279.821 18.9368 279.568 19.1844C279.321 19.4369 279.025 19.6369 278.698 19.7724C278.371 19.9078 278.021 19.976 277.667 19.9728ZM277.667 15.4176C277.423 15.4175 277.18 15.4663 276.955 15.5611C276.729 15.6558 276.525 15.7947 276.353 15.9694C276.055 16.3271 275.901 16.7834 275.922 17.2487C275.943 17.7139 276.138 18.1545 276.467 18.4838C276.796 18.8131 277.237 19.0074 277.702 19.0284C278.167 19.0495 278.624 18.8957 278.981 18.5974C279.156 18.4242 279.295 18.2182 279.389 17.9912C279.484 17.7642 279.533 17.5207 279.533 17.2747C279.528 16.7797 279.329 16.3065 278.978 15.9573C278.628 15.6081 278.153 15.4111 277.658 15.4088L277.667 15.4176Z" fill="#3C37A4"/>
<path d="M99.8041 63.4312H64.9043V206.648H99.8041V63.4312Z" fill="#3C37A4"/>
<path opacity="0.7" d="M99.8041 63.4312H64.9043V206.648H99.8041V63.4312Z" fill="white"/>
<path opacity="0.3" d="M97.2024 70.2551H67.5148V83.8945H97.2024V70.2551Z" fill="#263238"/>
<path opacity="0.416667" d="M97.2024 86.7502H67.5148V100.39H97.2024V86.7502Z" fill="#263238"/>
<path opacity="0.533333" d="M97.2024 103.245H67.5148V116.885H97.2024V103.245Z" fill="#263238"/>
<path opacity="0.65" d="M97.2024 119.749H67.5148V133.388H97.2024V119.749Z" fill="#263238"/>
<path opacity="0.766667" d="M97.2024 136.244H67.5148V149.884H97.2024V136.244Z" fill="#263238"/>
<path opacity="0.883333" d="M97.2024 152.739H67.5148V166.379H97.2024V152.739Z" fill="#263238"/>
<path d="M97.2024 169.243H67.5148V182.882H97.2024V169.243Z" fill="#263238"/>
<path d="M75.1961 71.9504L40.8159 77.9507L65.4391 219.035L99.8193 213.035L75.1961 71.9504Z" fill="#3C37A4"/>
<path opacity="0.8" d="M75.1961 71.9504L40.8159 77.9507L65.4391 219.035L99.8193 213.035L75.1961 71.9504Z" fill="white"/>
<path d="M73.8046 79.1131L44.559 84.2173L46.904 97.6535L76.1496 92.5493L73.8046 79.1131Z" fill="#3C37A4"/>
<path d="M76.6452 95.3686L47.3997 100.473L49.7447 113.909L78.9902 108.805L76.6452 95.3686Z" fill="#3C37A4"/>
<path d="M79.4844 111.624L50.2388 116.729L52.5838 130.165L81.8294 125.061L79.4844 111.624Z" fill="#3C37A4"/>
<path d="M82.3149 127.873L53.0693 132.977L55.4143 146.413L84.6599 141.309L82.3149 127.873Z" fill="#3C37A4"/>
<path d="M85.1555 144.128L55.91 149.232L58.255 162.669L87.5005 157.564L85.1555 144.128Z" fill="#3C37A4"/>
<path d="M88.2399 161.665L58.8491 166.711L61.1678 180.214L90.5586 175.167L88.2399 161.665Z" fill="#3C37A4"/>
<path d="M90.8252 176.624L61.5797 181.728L63.9246 195.164L93.1702 190.06L90.8252 176.624Z" fill="#3C37A4"/>
<path opacity="0.05" d="M73.8046 79.1131L44.559 84.2173L46.904 97.6535L76.1496 92.5493L73.8046 79.1131Z" fill="black"/>
<path opacity="0.1" d="M76.6452 95.3686L47.3997 100.473L49.7447 113.909L78.9902 108.805L76.6452 95.3686Z" fill="black"/>
<path opacity="0.2" d="M79.4844 111.624L50.2388 116.729L52.5838 130.165L81.8294 125.061L79.4844 111.624Z" fill="black"/>
<path opacity="0.3" d="M82.3149 127.873L53.0693 132.977L55.4143 146.413L84.6599 141.309L82.3149 127.873Z" fill="black"/>
<path opacity="0.4" d="M85.1555 144.128L55.91 149.232L58.255 162.669L87.5005 157.564L85.1555 144.128Z" fill="black"/>
<path opacity="0.5" d="M88.2399 161.665L58.8491 166.711L61.1678 180.214L90.5586 175.167L88.2399 161.665Z" fill="black"/>
<path opacity="0.6" d="M90.8252 176.624L61.5797 181.728L63.9246 195.164L93.1702 190.06L90.8252 176.624Z" fill="black"/>
<path d="M51.0699 84.7714L18.254 96.6506L67.0023 231.316L99.8182 219.437L51.0699 84.7714Z" fill="#3C37A4"/>
<path opacity="0.9" d="M51.0699 84.7714L18.254 96.6506L67.0023 231.316L99.8182 219.437L51.0699 84.7714Z" fill="white"/>
<path d="M50.9427 92.0649L23.0278 102.17L27.6703 114.995L55.5853 104.89L50.9427 92.0649Z" fill="#3C37A4"/>
<path d="M56.5625 107.58L28.6476 117.685L33.2901 130.509L61.2051 120.404L56.5625 107.58Z" fill="#3C37A4"/>
<path d="M62.1654 123.097L34.2505 133.202L38.893 146.027L66.808 135.922L62.1654 123.097Z" fill="#3C37A4"/>
<path d="M67.7853 138.611L39.8704 148.717L44.5129 161.541L72.4278 151.436L67.7853 138.611Z" fill="#3C37A4"/>
<path d="M73.4052 154.117L45.4902 164.222L50.1328 177.047L78.0477 166.942L73.4052 154.117Z" fill="#3C37A4"/>
<path d="M79.0163 169.632L51.1013 179.737L55.7439 192.562L83.6588 182.457L79.0163 169.632Z" fill="#3C37A4"/>
<path d="M84.6361 185.146L56.7212 195.251L61.3637 208.076L89.2787 197.971L84.6361 185.146Z" fill="#3C37A4"/>
<path opacity="0.6" d="M50.9427 92.0649L23.0278 102.17L27.6703 114.995L55.5853 104.89L50.9427 92.0649Z" fill="white"/>
<path opacity="0.5" d="M56.5625 107.58L28.6476 117.685L33.2901 130.509L61.2051 120.404L56.5625 107.58Z" fill="white"/>
<path opacity="0.4" d="M62.1654 123.097L34.2505 133.202L38.893 146.027L66.808 135.922L62.1654 123.097Z" fill="white"/>
<path opacity="0.3" d="M67.7853 138.611L39.8704 148.717L44.5129 161.541L72.4278 151.436L67.7853 138.611Z" fill="white"/>
<path opacity="0.2" d="M73.4052 154.117L45.4902 164.222L50.1328 177.047L78.0477 166.942L73.4052 154.117Z" fill="white"/>
<path opacity="0.1" d="M79.0163 169.632L51.1013 179.737L55.7439 192.562L83.6588 182.457L79.0163 169.632Z" fill="white"/>
</svg>
