<svg xmlns="http://www.w3.org/2000/svg" width="125" height="86" viewBox="0 0 125 86">
  <path fill-rule="evenodd" d="M899,634.997119 C875.758273,634.729188 857,615.805209 857,592.5 C857,569.194791 875.758273,550.270812 899,550.002881 L899,530 L901,530 L901,550.025976 C923.777435,550.816073 942,569.529982 942,592.5 C942,615.470018 923.777435,634.183927 901.000009,634.974023 L901,654 L899,654 L899,634.997119 Z M899,634.997119 C899.166438,634.999038 899.333107,635 899.5,635 C900.002084,635 900.502135,634.991294 901.000009,634.974023 L901,550.025976 C900.502135,550.008706 900.002084,550 899.5,550 C899.333107,550 899.166438,550.000962 899,550.002881 L899,634.997119 Z" transform="rotate(90 755.5 -101)"/>
</svg>
