<svg xmlns="http://www.w3.org/2000/svg" width="90" height="90" viewBox="0 0 90 90">
  <path fill-rule="evenodd" d="M899,743.997119 C875.758273,743.729188 857,724.805209 857,701.5 C857,678.194791 875.758273,659.270812 899,659.002881 L899,639 L901,639 L901,659.025976 C923.777435,659.816073 942,678.529982 942,701.5 C942,724.470018 923.777435,743.183927 901.000009,743.974023 L901,763 L899,763 L899,743.997119 Z M899,743.997119 C899.166438,743.999038 899.333107,744 899.5,744 C900.002084,744 900.502135,743.991294 901.000009,743.974023 L901,659.025976 C900.502135,659.008706 900.002084,659 899.5,659 C899.333107,659 899.166438,659.000962 899,659.002881 L899,743.997119 Z" transform="rotate(45 1263.862 -659.076)"/>
</svg>
