<?xml version="1.0" encoding="UTF-8"?>
<svg width="110px" height="112px" viewBox="0 0 110 112" version="1.1" xmlns="http://www.w3.org/2000/svg" xmlns:xlink="http://www.w3.org/1999/xlink">
    <!-- Generator: Sketch 51.3 (57544) - http://www.bohemiancoding.com/sketch -->
    <title>Fill 7</title>
    <desc>Created with Sketch.</desc>
    <defs></defs>
    <g id="Page-1" stroke="none" stroke-width="1" fill="none" fill-rule="evenodd">
        <g id="Shapes-CC" transform="translate(-671.000000, -144.000000)" fill="#1A1919">
            <path d="M773.924,214.373 L773.922,214.373 L773.922,219.782 L725.736,247.134 L677.298,219.648 L677.298,214.373 L677.297,214.373 L677.297,167.676 L685.768,172.483 L685.768,172.477 L725.752,195.169 L773.924,167.825 L773.924,214.373 Z M713.36,151.483 C705.288,155.428 698.019,161.034 691.986,168.049 L677.63,159.903 C686.974,154.258 697.595,151.293 708.616,151.293 C710.207,151.293 711.789,151.359 713.36,151.483 Z M753.504,171.438 L725.736,187.2 L697.892,171.4 C705.484,162.948 715.159,156.911 725.822,153.806 C736.396,156.963 745.984,163.007 753.504,171.438 Z M742.639,151.41 C753.66,151.41 764.28,154.373 773.624,160.018 L771.104,161.448 L759.403,168.09 C753.447,161.12 746.274,155.533 738.305,151.57 C739.741,151.467 741.186,151.41 742.639,151.41 Z M779.419,156.728 L779.416,156.73 L779.346,156.715 L779.419,156.728 Z M780.172,156.301 L780.174,156.292 L779.766,156.019 C768.753,148.635 755.915,144.732 742.639,144.732 C736.898,144.732 731.262,145.462 725.84,146.866 C720.289,145.388 714.508,144.616 708.616,144.616 C695.341,144.616 682.502,148.519 671.489,155.903 L671.081,156.176 L671.086,156.194 L671.052,156.175 L671.052,158.17 L671.048,158.169 L671.048,163.805 L671.047,163.805 L671.047,218.103 L671.048,218.103 L671.048,224.057 L725.752,255.103 L780.173,224.212 L780.173,218.103 L780.174,218.103 L780.174,164.277 L780.188,164.27 L780.188,156.292 L780.172,156.301 Z" id="Fill-7"></path>
        </g>
    </g>
</svg>