<?xml version="1.0" encoding="UTF-8"?>
<svg width="168px" height="143px" viewBox="0 0 168 143" version="1.1" xmlns="http://www.w3.org/2000/svg" xmlns:xlink="http://www.w3.org/1999/xlink">
    <!-- Generator: Sketch 51.3 (57544) - http://www.bohemiancoding.com/sketch -->
    <title>Fill 35</title>
    <desc>Created with Sketch.</desc>
    <defs></defs>
    <g id="Page-1" stroke="none" stroke-width="1" fill="none" fill-rule="evenodd">
        <g id="Shapes-CC" transform="translate(-1576.000000, -2761.000000)" fill="#1A1919">
            <path d="M1736.91,2891.97 L1728.44,2887.16 L1728.44,2887.17 L1688.45,2864.48 L1685.35,2866.24 L1685.35,2843.55 L1708.01,2856.41 L1708.02,2856.41 L1714.25,2859.95 L1714.25,2857.95 L1714.26,2857.95 L1714.26,2827.15 L1736.91,2840 L1736.91,2891.97 Z M1679.1,2891.97 L1670.63,2887.16 L1670.63,2887.17 L1666.58,2884.87 L1679.1,2877.76 L1679.1,2891.97 Z M1640.28,2891.82 L1640.28,2877.9 L1652.54,2884.86 L1640.28,2891.82 Z M1630.64,2864.48 L1582.47,2891.82 L1582.47,2839.86 L1605.13,2827 L1605.13,2851.84 L1605.12,2851.85 L1605.12,2859.83 L1614.2,2854.67 L1634.03,2843.42 L1634.03,2866.4 L1630.64,2864.48 Z M1685.35,2835.59 L1666.58,2824.94 L1688.47,2812.51 L1708.01,2823.6 L1708.01,2848.45 L1699.54,2843.64 L1685.35,2835.59 Z M1611.38,2823.45 L1630.66,2812.51 L1652.54,2824.93 L1634.03,2835.43 L1634.03,2835.44 L1611.38,2848.3 L1611.38,2823.45 Z M1679.1,2845.27 L1679.1,2869.78 L1659.55,2880.88 L1640.28,2869.94 L1640.28,2839.87 L1659.57,2828.92 L1679.1,2840 L1679.1,2845.27 Z M1611.38,2801.75 L1611.38,2796.34 L1659.57,2768.99 L1708.01,2796.47 L1708.01,2815.64 L1688.45,2804.54 L1659.55,2820.95 L1630.64,2804.54 L1611.38,2815.47 L1611.38,2801.75 Z M1743.16,2895.84 L1743.16,2841.54 L1743.15,2841.54 L1743.15,2835.59 L1714.26,2819.19 L1714.26,2792.06 L1659.55,2761.02 L1605.13,2791.91 L1605.13,2819.02 L1576.22,2835.43 L1576.22,2895.37 L1576.21,2895.37 L1576.21,2903.35 L1585.29,2898.2 L1630.66,2872.44 L1634.03,2874.36 L1634.03,2895.37 L1634.02,2895.37 L1634.02,2903.35 L1643.1,2898.2 L1659.57,2888.85 L1679.1,2899.93 L1679.11,2899.93 L1685.34,2903.47 L1685.34,2901.47 L1685.35,2901.47 L1685.35,2874.21 L1688.47,2872.44 L1736.91,2899.93 L1736.92,2899.93 L1743.15,2903.47 L1743.15,2895.84 L1743.16,2895.84 Z" id="Fill-35"></path>
        </g>
    </g>
</svg>