<?xml version="1.0" encoding="UTF-8"?>
<svg width="111px" height="139px" viewBox="0 0 111 139" version="1.1" xmlns="http://www.w3.org/2000/svg" xmlns:xlink="http://www.w3.org/1999/xlink">
    <!-- Generator: Sketch 51.3 (57544) - http://www.bohemiancoding.com/sketch -->
    <title>Fill 41</title>
    <desc>Created with Sketch.</desc>
    <defs></defs>
    <g id="Page-1" stroke="none" stroke-width="1" fill="none" fill-rule="evenodd">
        <g id="Shapes-CC" transform="translate(-666.000000, -3159.000000)" fill="#1A1919">
            <path d="M722.055,3198.64 L769.848,3171.51 L769.848,3218.06 L769.846,3218.06 L769.846,3223.47 L767.825,3224.61 L722.055,3198.64 Z M769.86,3233.72 L769.86,3239 L769.862,3239 L769.862,3285.7 L761.39,3280.89 L722.055,3258.57 L767.845,3232.58 L769.86,3233.72 Z M673.234,3285.55 L673.234,3239 L673.236,3239 L673.236,3233.59 L675.256,3232.44 L721.026,3258.42 L673.234,3285.55 Z M673.222,3223.33 L673.222,3218.06 L673.22,3218.06 L673.22,3171.36 L681.692,3176.17 L681.692,3176.16 L721.026,3198.48 L675.236,3224.48 L673.222,3223.33 Z M682.266,3228.46 L721.422,3206.24 L760.817,3228.59 L721.66,3250.82 L682.266,3228.46 Z M776.097,3221.79 L776.098,3221.79 L776.098,3167.96 L776.111,3167.95 L776.111,3159.98 L767.027,3165.13 L721.66,3190.88 L673.222,3163.4 L673.206,3163.39 L666.976,3159.86 L666.976,3161.85 L666.972,3161.85 L666.972,3167.49 L666.971,3167.49 L666.971,3221.79 L666.972,3221.79 L666.972,3227.74 L668.228,3228.45 L666.984,3229.16 L666.984,3289.09 L666.971,3289.1 L666.971,3297.08 L676.054,3291.92 L721.422,3266.17 L769.86,3293.66 L769.876,3293.66 L776.107,3297.2 L776.107,3295.2 L776.11,3295.2 L776.11,3289.57 L776.111,3289.57 L776.111,3235.27 L776.11,3235.27 L776.11,3229.31 L774.854,3228.6 L776.097,3227.9 L776.097,3221.79 Z" id="Fill-41"></path>
        </g>
    </g>
</svg>