<?xml version="1.0" encoding="UTF-8"?>
<svg width="149px" height="143px" viewBox="0 0 149 143" version="1.1" xmlns="http://www.w3.org/2000/svg" xmlns:xlink="http://www.w3.org/1999/xlink">
    <!-- Generator: Sketch 51.3 (57544) - http://www.bohemiancoding.com/sketch -->
    <title>Fill 54</title>
    <desc>Created with Sketch.</desc>
    <defs></defs>
    <g id="Page-1" stroke="none" stroke-width="1" fill="none" fill-rule="evenodd">
        <g id="Shapes-CC" transform="translate(-172.000000, -3162.000000)" fill="#1A1919">
            <path d="M311.881,3215.86 L298.812,3259.42 L297.528,3259.42 L276.275,3237.19 L289.644,3240.25 L289.66,3240.25 L296.644,3241.84 L296.07,3239.93 L296.074,3239.93 L294.455,3234.53 L294.456,3234.53 L278.852,3182.53 L278.851,3182.53 L277.14,3176.82 L262.587,3173.5 L275.14,3170.63 L313.434,3210.67 L311.88,3215.86 L311.881,3215.86 Z M294.938,3268.81 L246.751,3296.16 L198.313,3268.68 L198.313,3266.57 L199.297,3265.55 L199.297,3265.54 L209.989,3254.36 L246.768,3275.24 L283.251,3254.53 L293.971,3265.74 L293.97,3265.74 L294.938,3266.75 L294.938,3268.81 Z M247.056,3230.52 L263.99,3234.39 L278.306,3249.36 L246.751,3267.27 L214.921,3249.21 L228.804,3234.69 L247.056,3230.52 Z M277.863,3230.46 L247.446,3223.51 C247.408,3223.45 247.36,3223.41 247.325,3223.35 L215.403,3230.65 L215.405,3230.65 L205.91,3232.82 L219.329,3188.09 L219.331,3188.09 L220.846,3183.04 L247.057,3177.05 L272.421,3182.84 L273.937,3187.9 L273.938,3187.89 L287.358,3232.62 L277.862,3230.45 L277.863,3230.46 Z M181.386,3215.66 L181.388,3215.66 L179.833,3210.48 L218.127,3170.44 L231.526,3173.5 L216.127,3177.02 L214.416,3182.72 L214.415,3182.72 L198.812,3234.73 L198.813,3234.73 L197.193,3240.13 L197.197,3240.13 L196.624,3242.04 L203.607,3240.44 L203.623,3240.44 L216.52,3237.49 L195.554,3259.42 L194.514,3259.42 L181.386,3215.66 Z M318.939,3214.08 L320.694,3208.23 L277.446,3163 L247.056,3169.95 L215.821,3162.81 L172.573,3208.03 L174.328,3213.89 L189.796,3265.44 L189.785,3265.45 L192.064,3273.05 L192.064,3273.09 L246.768,3304.13 L301.161,3273.26 L301.19,3273.29 L303.482,3265.65 L303.471,3265.63 L318.94,3214.08 L318.939,3214.08 Z" id="Fill-54"></path>
        </g>
    </g>
</svg>