<?xml version="1.0" encoding="UTF-8"?>
<svg width="155px" height="112px" viewBox="0 0 155 112" version="1.1" xmlns="http://www.w3.org/2000/svg" xmlns:xlink="http://www.w3.org/1999/xlink">
    <!-- Generator: Sketch 51.3 (57544) - http://www.bohemiancoding.com/sketch -->
    <title>Fill 87</title>
    <desc>Created with Sketch.</desc>
    <defs></defs>
    <g id="Page-1" stroke="none" stroke-width="1" fill="none" fill-rule="evenodd">
        <g id="Shapes-CC" transform="translate(-1118.000000, -2788.000000)" fill="#1A1919">
            <path d="M1226.33,2853.52 L1201.16,2860.46 L1208.18,2835.01 L1233.36,2828.07 L1226.33,2853.52 Z M1197.71,2888.7 L1195.54,2890.87 L1193.37,2888.7 L1195.54,2880.82 L1197.71,2888.7 Z M1157.72,2828.07 L1182.9,2835.01 L1189.92,2860.46 L1164.75,2853.52 L1157.72,2828.07 Z M1267.2,2817.05 L1262.88,2812.73 L1243.28,2818.14 L1248.69,2798.53 L1244.48,2794.32 L1239.02,2788.87 L1234.6,2793.29 L1237.42,2796.1 L1241.15,2799.83 L1235.51,2820.28 L1202.56,2829.37 L1195.54,2854.8 L1188.52,2829.37 L1155.57,2820.28 L1149.93,2799.83 L1153.66,2796.1 L1156.48,2793.29 L1152.06,2788.87 L1146.6,2794.32 L1142.39,2798.53 L1147.8,2818.14 L1128.2,2812.73 L1123.88,2817.05 L1118.42,2822.5 L1122.84,2826.92 L1125.66,2824.1 L1125.66,2824.11 L1129.49,2820.28 L1149.95,2825.93 L1159.12,2859.17 L1182.49,2865.61 L1172.92,2868.25 L1169.09,2864.43 L1166.28,2861.61 L1161.86,2866.03 L1167.31,2871.49 L1171.63,2875.81 L1191.24,2870.4 L1185.83,2890 L1190.04,2894.21 L1195.49,2899.67 L1195.54,2899.62 L1195.59,2899.67 L1201.04,2894.21 L1205.25,2890 L1199.84,2870.4 L1219.45,2875.81 L1223.77,2871.49 L1229.22,2866.03 L1224.8,2861.61 L1221.99,2864.43 L1221.98,2864.43 L1218.16,2868.25 L1208.59,2865.61 L1231.96,2859.17 L1241.13,2825.93 L1261.59,2820.28 L1265.42,2824.11 L1265.42,2824.1 L1268.24,2826.92 L1272.66,2822.5 L1267.2,2817.05 Z" id="Fill-87"></path>
        </g>
    </g>
</svg>