<?xml version="1.0" encoding="UTF-8"?>
<svg width="159px" height="91px" viewBox="0 0 159 91" version="1.1" xmlns="http://www.w3.org/2000/svg" xmlns:xlink="http://www.w3.org/1999/xlink">
    <!-- Generator: Sketch 51.3 (57544) - http://www.bohemiancoding.com/sketch -->
    <title>Fill 23</title>
    <desc>Created with Sketch.</desc>
    <defs></defs>
    <g id="Page-1" stroke="none" stroke-width="1" fill="none" fill-rule="evenodd">
        <g id="Shapes-CC" transform="translate(-641.000000, -925.000000)" fill="#1A1919">
            <path d="M731.518,950.928 L744.919,943.322 L744.919,958.535 L731.518,950.928 Z M696.265,958.535 L696.265,943.322 L709.666,950.928 L696.265,958.535 Z M771.185,973.444 L754.635,964.05 L754.635,937.806 L754.656,937.794 L754.656,925.39 L740.534,933.406 L740.534,933.407 L720.592,944.726 L700.651,933.407 L700.651,933.406 L686.528,925.39 L686.528,937.794 L686.549,937.806 L686.549,964.05 L670,973.444 L641.324,957.172 L641.324,969.545 L670.025,985.833 L686.549,976.454 L686.549,1015.24 C689.784,1015 693.022,1014.83 696.265,1014.78 L696.265,970.939 L720.592,957.13 L744.919,970.939 L744.919,1014.78 C748.163,1014.83 751.4,1015 754.635,1015.24 L754.635,976.454 L771.159,985.833 L799.859,969.545 L799.859,957.172 L771.185,973.444 Z" id="Fill-23"></path>
        </g>
    </g>
</svg>