<?xml version="1.0" encoding="UTF-8"?>
<svg width="155px" height="68px" viewBox="0 0 155 68" version="1.1" xmlns="http://www.w3.org/2000/svg" xmlns:xlink="http://www.w3.org/1999/xlink">
    <!-- Generator: Sketch 51.3 (57544) - http://www.bohemiancoding.com/sketch -->
    <title>Fill 20</title>
    <desc>Created with Sketch.</desc>
    <defs></defs>
    <g id="Page-1" stroke="none" stroke-width="1" fill="none" fill-rule="evenodd">
        <g id="Shapes-CC" transform="translate(-1116.000000, -1297.000000)" fill="#1A1919">
            <path d="M1193.94,1349.07 L1161.53,1330.68 L1193.59,1312.48 L1226.01,1330.87 L1193.94,1349.07 Z M1270.79,1308.09 L1270.79,1297.2 L1261.97,1297.2 L1261.97,1310.46 L1235.9,1325.25 L1193.57,1301.23 L1151.6,1325.05 L1125.56,1310.27 L1125.56,1297.2 L1116.74,1297.2 L1116.74,1316.49 L1141.71,1330.66 L1116.74,1344.83 L1116.74,1364.35 L1125.56,1364.35 L1125.56,1351.09 L1151.63,1336.29 L1193.97,1360.32 L1235.93,1336.5 L1261.97,1351.28 L1261.97,1364.35 L1270.79,1364.35 L1270.79,1345.05 L1245.82,1330.88 L1270.79,1316.71 L1270.79,1308.09 Z" id="Fill-20"></path>
        </g>
    </g>
</svg>