<?xml version="1.0" encoding="UTF-8"?>
<svg width="152px" height="107px" viewBox="0 0 152 107" version="1.1" xmlns="http://www.w3.org/2000/svg" xmlns:xlink="http://www.w3.org/1999/xlink">
    <!-- Generator: Sketch 51.3 (57544) - http://www.bohemiancoding.com/sketch -->
    <title>Fill 73</title>
    <desc>Created with Sketch.</desc>
    <defs></defs>
    <g id="Page-1" stroke="none" stroke-width="1" fill="none" fill-rule="evenodd">
        <g id="Shapes-CC" transform="translate(-167.000000, -2775.000000)" fill="#1A1919">
            <path d="M312.427,2843.78 L312.426,2843.78 L312.426,2848.67 L267.492,2874.17 L249.583,2864.01 L293.747,2838.94 L293.747,2811.06 L312.427,2800.46 L312.427,2843.78 Z M218.635,2874.17 L173.7,2848.67 L173.7,2843.78 L173.699,2843.78 L173.699,2800.46 L181.558,2804.92 L192.513,2811.13 L192.513,2833.27 L192.515,2833.27 L192.515,2838.79 L216.992,2852.68 L216.992,2852.91 L236.544,2864.01 L218.635,2874.17 Z M198.311,2786.49 L206.17,2790.95 L206.17,2790.94 L243.262,2811.99 L287.95,2786.63 L287.95,2829.81 L287.948,2829.81 L287.948,2834.83 L243.247,2860.2 L198.312,2834.7 L198.312,2829.81 L198.311,2829.81 L198.311,2786.49 Z M318.224,2796.87 L318.224,2791.64 L318.22,2791.64 L318.22,2789.79 L312.441,2793.07 L312.426,2793.08 L293.747,2803.68 L293.747,2783.34 L293.76,2783.33 L293.76,2775.93 L285.333,2780.71 L243.247,2804.6 L198.312,2779.1 L198.298,2779.1 L192.518,2775.82 L192.518,2777.67 L192.515,2777.67 L192.515,2782.9 L192.513,2782.9 L192.513,2803.75 L173.7,2793.08 L173.686,2793.07 L167.906,2789.79 L167.906,2791.64 L167.902,2791.64 L167.902,2852.76 L218.65,2881.57 L243.063,2867.71 L267.477,2881.57 L318.224,2852.76 L318.224,2847.24 L318.225,2847.24 L318.225,2796.87 L318.224,2796.87 Z" id="Fill-73"></path>
        </g>
    </g>
</svg>