<?xml version="1.0" encoding="UTF-8"?>
<svg width="141px" height="134px" viewBox="0 0 141 134" version="1.1" xmlns="http://www.w3.org/2000/svg" xmlns:xlink="http://www.w3.org/1999/xlink">
    <!-- Generator: Sketch 51.3 (57544) - http://www.bohemiancoding.com/sketch -->
    <title>Fill 58</title>
    <desc>Created with Sketch.</desc>
    <defs></defs>
    <g id="Page-1" stroke="none" stroke-width="1" fill="none" fill-rule="evenodd">
        <g id="Shapes-CC" transform="translate(-664.000000, -1652.000000)" fill="#1A1919">
            <path d="M732.177,1772.16 C728.903,1773.13 725.652,1774.16 722.385,1775.15 L707.206,1778.62 L688.45,1759 L688.45,1757.2 L688.452,1757.2 L688.452,1752.07 L734.097,1726.16 L779.981,1752.2 L779.981,1757.2 L779.982,1757.2 L779.982,1759.17 L761.212,1778.8 L732.177,1772.16 Z M672.402,1735.77 L684.783,1694.51 L685.998,1694.51 L717.856,1727.82 L682.53,1747.87 L682.53,1752.81 L670.931,1740.68 L672.404,1735.77 L672.402,1735.77 Z M688.452,1685.61 L734.097,1659.7 L779.981,1685.74 L779.981,1687.73 L779.049,1688.71 L744.897,1724.42 L743.922,1724.2 L734.082,1718.61 L724.612,1723.99 L723.521,1724.24 L689.368,1688.52 L688.452,1687.56 L688.452,1685.61 Z M796.015,1735.96 L796.013,1735.96 L797.486,1740.87 L785.901,1752.98 L785.901,1748.02 L750.587,1727.98 L782.594,1694.51 L783.58,1694.51 L796.015,1735.96 Z M804.363,1743.18 L802.7,1737.64 L802.701,1737.64 L788.049,1688.8 L788.059,1688.79 L785.901,1681.6 L785.901,1681.56 L734.082,1652.15 L682.557,1681.4 L682.53,1681.37 L680.358,1688.61 L680.368,1688.62 L665.716,1737.46 L665.717,1737.46 L664.054,1743 L705.022,1785.84 L733.808,1779.26 L763.396,1786.02 L804.363,1743.18 Z" id="Fill-58"></path>
        </g>
    </g>
</svg>