<?xml version="1.0" encoding="UTF-8"?>
<svg width="112px" height="115px" viewBox="0 0 112 115" version="1.1" xmlns="http://www.w3.org/2000/svg" xmlns:xlink="http://www.w3.org/1999/xlink">
    <!-- Generator: Sketch 51.3 (57544) - http://www.bohemiancoding.com/sketch -->
    <title>Fill 83</title>
    <desc>Created with Sketch.</desc>
    <defs></defs>
    <g id="Page-1" stroke="none" stroke-width="1" fill="none" fill-rule="evenodd">
        <g id="Shapes-CC" transform="translate(-185.000000, -1663.000000)" fill="#1A1919">
            <path d="M248.2,1770.13 L233.742,1770.13 L211.646,1731.2 L217.249,1732.75 L240.971,1739.29 L264.694,1732.75 L270.297,1731.2 L248.2,1770.13 Z M233.863,1684.7 L241.986,1684.69 L248.079,1684.7 L269.922,1723.19 L240.971,1731.17 L212.021,1723.19 L233.863,1684.7 Z M296.42,1672.74 L286.837,1663.16 L281.743,1668.25 L287.871,1674.38 L275.874,1717.85 L252.967,1677.49 L228.976,1677.49 L206.068,1717.85 L194.072,1674.38 L200.199,1668.25 L195.106,1663.16 L185.523,1672.74 L200.618,1727.46 L200.571,1727.54 L200.706,1727.78 L200.827,1728.22 L200.98,1728.26 L228.836,1777.33 L253.107,1777.33 L280.963,1728.26 L281.115,1728.22 L281.237,1727.78 L281.371,1727.54 L281.324,1727.46 L296.42,1672.74 Z" id="Fill-83"></path>
        </g>
    </g>
</svg>