<?xml version="1.0" encoding="UTF-8"?>
<svg width="110px" height="138px" viewBox="0 0 110 138" version="1.1" xmlns="http://www.w3.org/2000/svg" xmlns:xlink="http://www.w3.org/1999/xlink">
    <!-- Generator: Sketch 51.3 (57544) - http://www.bohemiancoding.com/sketch -->
    <title>Fill 82</title>
    <desc>Created with Sketch.</desc>
    <defs></defs>
    <g id="Page-1" stroke="none" stroke-width="1" fill="none" fill-rule="evenodd">
        <g id="Shapes-CC" transform="translate(-1599.000000, -1653.000000)" fill="#1A1919">
            <path d="M1702.62,1750.29 L1702.62,1755.7 L1654.43,1783.05 L1605.99,1755.56 L1605.99,1703.59 L1614.46,1708.4 L1614.46,1708.39 L1654.45,1731.08 L1702.62,1703.74 L1702.62,1750.29 Z M1611.39,1676.74 L1647.78,1662.04 C1649.36,1661.4 1651.75,1661.04 1654.32,1661.04 C1656.89,1661.04 1659.27,1661.4 1660.85,1662.04 L1697.25,1676.74 C1699.45,1677.63 1701.79,1681.09 1701.79,1683.47 L1701.79,1696.24 L1699.8,1697.36 L1654.43,1723.12 L1606.85,1696.11 L1606.85,1683.47 C1606.85,1681.09 1609.18,1677.63 1611.39,1676.74 Z M1708.87,1692.22 L1708.87,1683.47 C1708.87,1678.22 1704.76,1672.13 1699.9,1670.17 L1663.5,1655.47 C1661.07,1654.49 1657.81,1653.95 1654.32,1653.95 C1650.82,1653.95 1647.56,1654.49 1645.13,1655.47 L1608.74,1670.17 C1603.87,1672.13 1599.76,1678.22 1599.76,1683.47 L1599.76,1692.1 L1599.75,1692.09 L1599.75,1694.09 L1599.74,1694.08 L1599.74,1759.97 L1654.45,1791.02 L1708.87,1760.13 L1708.87,1700.19 L1708.88,1700.19 L1708.88,1692.21 L1708.87,1692.22 Z" id="Fill-82"></path>
        </g>
    </g>
</svg>