<?xml version="1.0" encoding="UTF-8"?>
<svg width="151px" height="118px" viewBox="0 0 151 118" version="1.1" xmlns="http://www.w3.org/2000/svg" xmlns:xlink="http://www.w3.org/1999/xlink">
    <!-- Generator: Sketch 51.3 (57544) - http://www.bohemiancoding.com/sketch -->
    <title>Fill 80</title>
    <desc>Created with Sketch.</desc>
    <defs></defs>
    <g id="Page-1" stroke="none" stroke-width="1" fill="none" fill-rule="evenodd">
        <g id="Shapes-CC" transform="translate(-649.000000, -3553.000000)" fill="#1A1919">
            <path d="M778.91,3650.03 L734.36,3662.32 L776.43,3638.44 L776.43,3583.11 L789.338,3596.02 L789.337,3596.02 L792.846,3599.53 L778.91,3650.03 Z M725.112,3659.93 L724.19,3659.41 L694.11,3629.33 L724.913,3620.83 L755.716,3629.33 L725.112,3659.93 Z M670.916,3650.03 L656.98,3599.53 L660.488,3596.02 L660.487,3596.02 L673.783,3582.73 L673.783,3632.69 L673.784,3632.69 L673.784,3638.29 L716.735,3662.67 L670.916,3650.03 Z M691.547,3564.96 L693.983,3573.79 L693.988,3573.79 L697.948,3588.15 L679.663,3577.77 L679.648,3577.77 L679.071,3577.44 L691.547,3564.96 Z M705.489,3615.48 L712.64,3617.45 L691.744,3623.21 L682.273,3625.83 L687.579,3631.13 L687.593,3631.13 L704.97,3648.5 L679.663,3634.14 L679.663,3629.18 L679.662,3629.18 L679.662,3585.26 L687.63,3589.78 L687.63,3589.77 L700.397,3597.02 L705.489,3615.48 Z M744.337,3615.48 L749.308,3597.46 L770.551,3585.4 L770.551,3629.18 L770.55,3629.18 L770.55,3634.27 L744.045,3649.31 L762.233,3631.13 L762.246,3631.13 L767.553,3625.83 L758.082,3623.21 L758.081,3623.21 L737.186,3617.45 L744.337,3615.48 Z M755.838,3573.79 L755.842,3573.79 L758.279,3564.96 L770.972,3577.66 L767.899,3579.4 L751.763,3588.56 L755.838,3573.79 Z M795.975,3594.35 L795.976,3594.35 L776.443,3574.81 L776.443,3574.55 L776.275,3574.64 L759.861,3558.23 L759.86,3558.23 L756.112,3554.48 L756.11,3554.49 L754.783,3553.16 L752.99,3559.66 L752.983,3559.67 L739.047,3610.17 L724.913,3614.06 L710.779,3610.17 L696.843,3559.67 L696.835,3559.66 L695.043,3553.16 L693.715,3554.49 L693.713,3554.48 L653.85,3594.35 L653.851,3594.35 L649.891,3598.31 L665.626,3655.34 L722.369,3670.99 L724.913,3668.45 L727.458,3670.99 L784.199,3655.34 L799.935,3598.31 L795.975,3594.35 Z" id="Fill-80"></path>
        </g>
    </g>
</svg>