<?xml version="1.0" encoding="UTF-8"?>
<svg width="158px" height="112px" viewBox="0 0 158 112" version="1.1" xmlns="http://www.w3.org/2000/svg" xmlns:xlink="http://www.w3.org/1999/xlink">
    <!-- Generator: Sketch 51.3 (57544) - http://www.bohemiancoding.com/sketch -->
    <title>Fill 18</title>
    <desc>Created with Sketch.</desc>
    <defs></defs>
    <g id="Page-1" stroke="none" stroke-width="1" fill="none" fill-rule="evenodd">
        <g id="Shapes-CC" transform="translate(-171.000000, -134.000000)" fill="#1A1919">
            <path d="M322.255,206.16 L322.254,206.16 L322.254,211.289 L275.159,238.012 L256.107,227.198 L302.663,200.776 L302.663,194.988 L302.664,194.988 L302.664,171.87 L314.019,165.426 L314.019,165.432 L322.255,160.758 L322.255,206.16 Z M224.318,238.012 L177.223,211.289 L177.223,206.16 L177.221,206.16 L177.221,160.758 L185.458,165.432 L185.458,165.426 L196.812,171.87 L196.812,194.988 L196.814,194.988 L196.814,200.776 L243.37,227.198 L224.318,238.012 Z M211.125,150.633 L211.125,150.627 L239.309,166.622 L220.271,177.428 L202.889,167.565 L202.889,145.959 L211.125,150.633 Z M296.588,145.959 L296.588,167.565 L279.206,177.428 L260.168,166.622 L288.352,150.627 L288.352,150.633 L296.588,145.959 Z M249.738,223.074 L202.89,196.49 L202.89,191.361 L202.889,191.361 L202.889,175.303 L220.287,185.177 L246.143,170.5 L249.735,172.539 L249.735,172.543 L249.738,172.541 L249.742,172.543 L249.742,172.539 L253.334,170.5 L279.19,185.177 L296.588,175.303 L296.588,191.361 L296.587,191.361 L296.587,196.49 L249.738,223.074 Z M328.33,156.995 L328.33,151.515 L328.327,151.516 L328.327,149.576 L322.269,153.014 L322.254,153.017 L302.664,164.133 L302.664,142.196 L302.663,142.196 L302.663,136.716 L302.659,136.717 L302.659,134.777 L296.602,138.214 L296.587,138.218 L249.738,164.802 L202.89,138.218 L202.875,138.214 L196.818,134.777 L196.818,136.717 L196.814,136.716 L196.814,142.196 L196.812,142.196 L196.812,164.133 L177.223,153.017 L177.208,153.014 L171.15,149.576 L171.15,151.516 L171.146,151.515 L171.146,156.995 L171.145,156.995 L171.145,209.787 L171.146,209.787 L171.146,215.575 L224.333,245.761 L249.738,231.34 L275.143,245.761 L328.33,215.575 L328.33,209.787 L328.332,209.787 L328.332,156.995 L328.33,156.995 Z" id="Fill-18"></path>
        </g>
    </g>
</svg>