<?xml version="1.0" encoding="UTF-8"?>
<svg width="110px" height="174px" viewBox="0 0 110 174" version="1.1" xmlns="http://www.w3.org/2000/svg" xmlns:xlink="http://www.w3.org/1999/xlink">
    <!-- Generator: Sketch 51.3 (57544) - http://www.bohemiancoding.com/sketch -->
    <title>Fill 74</title>
    <desc>Created with Sketch.</desc>
    <defs></defs>
    <g id="Page-1" stroke="none" stroke-width="1" fill="none" fill-rule="evenodd">
        <g id="Shapes-CC" transform="translate(-1144.000000, -3146.000000)" fill="#1A1919">
            <path d="M1247.08,3279.12 L1247.08,3284.53 L1198.9,3311.88 L1150.46,3284.4 L1150.46,3258.11 L1198.91,3285.61 L1247.08,3258.26 L1247.08,3279.12 Z M1247.08,3231.83 L1247.08,3250.29 L1198.9,3277.64 L1150.46,3250.15 L1150.46,3216.05 L1198.65,3188.7 L1247.08,3216.19 L1247.08,3231.83 Z M1150.46,3187.22 L1150.46,3181.81 L1198.65,3154.46 L1247.08,3181.94 L1247.08,3208.23 L1198.63,3180.73 L1150.46,3208.08 L1150.46,3187.22 Z M1253.33,3183.49 L1253.33,3177.53 L1198.63,3146.49 L1144.21,3177.38 L1144.21,3288.81 L1198.91,3319.85 L1253.33,3288.96 L1253.33,3183.49 Z" id="Fill-74"></path>
        </g>
    </g>
</svg>