<?xml version="1.0" encoding="UTF-8"?>
<svg width="152px" height="91px" viewBox="0 0 152 91" version="1.1" xmlns="http://www.w3.org/2000/svg" xmlns:xlink="http://www.w3.org/1999/xlink">
    <!-- Generator: Sketch 51.3 (57544) - http://www.bohemiancoding.com/sketch -->
    <title>Fill 5</title>
    <desc>Created with Sketch.</desc>
    <defs></defs>
    <g id="Page-1" stroke="none" stroke-width="1" fill="none" fill-rule="evenodd">
        <g id="Shapes-CC" transform="translate(-1110.000000, -927.000000)" fill="#1A1919">
            <path d="M1254.2,987.459 L1217.47,1008.3 L1199.99,998.385 L1219.9,998.385 L1219.9,968.858 L1254.2,949.394 L1254.2,987.459 Z M1156.49,990.899 L1212.41,990.899 L1212.41,934.979 L1156.49,934.979 L1156.49,990.899 Z M1154.31,1008.3 L1117.57,987.459 L1117.57,949.394 L1149.01,967.231 L1149.01,998.385 L1171.78,998.385 L1154.31,1008.3 Z M1261.28,936.628 L1219.9,960.108 L1219.9,927.493 L1149.01,927.493 L1149.01,958.481 L1110.49,936.628 L1110.49,938.647 L1110.49,938.646 L1110.49,992.186 L1154.32,1017.06 L1185.89,999.144 L1217.45,1017.06 L1261.29,992.186 L1261.28,936.628 Z" id="Fill-5"></path>
        </g>
    </g>
</svg>