<svg>
  <g transform="translate(-1143.000000, -2046.000000)" fill="#1A1919">
    <path d="M1221.93,2090.94 L1206.17,2081.99 L1239.42,2063.12 L1239.42,2081.01 L1221.93,2090.94 Z M1170.22,2090.94 L1152.72,2081.01 L1152.72,2063.12 L1185.98,2081.99 L1170.22,2090.94 Z M1248.42,2058.01 L1248.42,2046.55 L1235.37,2053.96 L1196.07,2076.26 L1156.78,2053.96 L1143.73,2046.55 L1143.73,2058.01 L1143.75,2058.02 L1143.75,2075.92 L1143.73,2075.91 L1143.73,2087.34 L1143.75,2087.35 L1143.75,2129.55 C1146.74,2129.33 1149.73,2129.17 1152.72,2129.13 L1152.72,2092.44 L1170.24,2102.39 L1196.07,2087.72 L1221.91,2102.39 L1239.42,2092.44 L1239.42,2129.13 C1242.42,2129.17 1245.41,2129.33 1248.4,2129.55 L1248.4,2087.35 L1248.42,2087.34 L1248.42,2075.91 L1248.4,2075.92 L1248.4,2058.02 L1248.42,2058.01 Z">
    </path>
  </g>
</svg>