<?xml version="1.0" encoding="UTF-8"?>
<svg width="110px" height="144px" viewBox="0 0 110 144" version="1.1" xmlns="http://www.w3.org/2000/svg" xmlns:xlink="http://www.w3.org/1999/xlink">
    <!-- Generator: Sketch 51.3 (57544) - http://www.bohemiancoding.com/sketch -->
    <title>Fill 26</title>
    <desc>Created with Sketch.</desc>
    <defs></defs>
    <g id="Page-1" stroke="none" stroke-width="1" fill="none" fill-rule="evenodd">
        <g id="Shapes-CC" transform="translate(-1596.000000, -1258.000000)" fill="#1A1919">
            <path d="M1696.16,1308.25 L1664.79,1326.06 L1650.54,1317.97 L1636.53,1325.92 L1602.36,1306.53 L1602.36,1298.76 L1602.37,1298.76 L1602.37,1293.35 L1650.55,1266 L1698.99,1293.49 L1698.99,1306.65 L1696.16,1308.25 Z M1698.98,1345.45 L1690.52,1340.65 L1690.52,1340.66 L1671.82,1330.05 L1698.98,1314.63 L1698.98,1345.45 Z M1643.56,1329.9 L1650.55,1325.93 L1657.78,1330.04 L1650.79,1334.01 L1643.56,1329.9 Z M1698.98,1361.18 L1698.98,1366.59 L1650.79,1393.94 L1602.35,1366.45 L1602.35,1353.3 L1605.18,1351.69 L1636.55,1333.88 L1650.81,1341.98 L1664.81,1334.03 L1698.98,1353.41 L1698.98,1361.18 Z M1602.36,1314.49 L1610.82,1319.29 L1610.82,1319.28 L1629.52,1329.89 L1602.36,1345.31 L1602.36,1314.49 Z M1705.24,1295.03 L1705.24,1289.08 L1650.54,1258.03 L1596.11,1288.92 L1596.11,1302.99 L1596.11,1302.98 L1596.11,1304.98 L1596.1,1304.98 L1596.1,1370.86 L1650.81,1401.91 L1705.23,1371.02 L1705.23,1356.95 L1705.24,1356.96 L1705.24,1295.03 Z" id="Fill-26"></path>
        </g>
    </g>
</svg>