<?xml version="1.0" encoding="UTF-8"?>
<svg width="127px" height="115px" viewBox="0 0 127 115" version="1.1" xmlns="http://www.w3.org/2000/svg" xmlns:xlink="http://www.w3.org/1999/xlink">
    <!-- Generator: Sketch 51.3 (57544) - http://www.bohemiancoding.com/sketch -->
    <title>Fill 63</title>
    <desc>Created with Sketch.</desc>
    <defs></defs>
    <g id="Page-1" stroke="none" stroke-width="1" fill="none" fill-rule="evenodd">
        <g id="Shapes-CC" transform="translate(-1608.000000, -3547.000000)" fill="#1A1919">
            <path d="M1671.85,3652.6 L1615.92,3620.86 L1615.92,3620.74 L1650.11,3620.74 L1650.11,3605.21 L1672.09,3592.74 L1697.01,3606.89 L1697.01,3620.74 L1727.5,3620.74 L1727.5,3621.01 L1671.85,3652.6 Z M1625.7,3566.39 L1625.7,3566.38 L1642.88,3576.13 L1642.88,3576.16 L1642.89,3576.16 L1642.89,3613.53 L1615.91,3613.53 L1615.91,3560.84 L1625.7,3566.39 Z M1697.01,3578.59 L1697.01,3597.67 L1680.2,3588.13 L1697.01,3578.59 Z M1650.11,3580.26 L1663.97,3588.13 L1650.11,3596 L1650.11,3580.26 Z M1727.5,3561.01 L1727.5,3613.53 L1704.23,3613.53 L1704.23,3574.49 L1704.25,3574.48 L1704.25,3574.21 L1727.5,3561.01 Z M1724.24,3553.64 L1724.24,3553.65 L1671.85,3583.38 L1615.92,3551.64 L1615.9,3551.64 L1608.7,3547.56 L1608.7,3625.95 L1671.87,3661.8 L1734.72,3626.13 L1734.72,3556.91 L1734.73,3556.9 L1734.73,3547.69 L1724.24,3553.64 Z" id="Fill-63"></path>
        </g>
    </g>
</svg>