<?xml version="1.0" encoding="UTF-8"?>
<svg width="202px" height="71px" viewBox="0 0 202 71" version="1.1" xmlns="http://www.w3.org/2000/svg" xmlns:xlink="http://www.w3.org/1999/xlink">
    <!-- Generator: Sketch 51.3 (57544) - http://www.bohemiancoding.com/sketch -->
    <title>Fill 22</title>
    <desc>Created with Sketch.</desc>
    <defs></defs>
    <g id="Page-1" stroke="none" stroke-width="1" fill="none" fill-rule="evenodd">
        <g id="Shapes-CC" transform="translate(-628.000000, -2436.000000)" fill="#1A1919">
            <path d="M775.769,2498.6 L744.785,2444.24 L759.858,2444.55 L789.491,2496.54 L790.841,2498.9 L775.769,2498.6 Z M681.885,2498.6 L666.819,2498.9 L668.17,2496.54 L697.803,2444.55 L712.868,2444.24 L711.518,2446.61 L711.519,2446.61 L681.885,2498.6 Z M829.296,2449.95 C827.154,2448.89 825.035,2447.77 822.96,2446.58 L796.011,2491.9 L764.547,2436.7 L740.206,2436.21 L740.202,2436.2 L735.525,2444.07 L735.533,2444.08 L728.827,2455.36 L722.121,2444.08 L722.129,2444.07 L722.121,2444.05 L722.124,2444.05 L717.458,2436.21 L717.456,2436.21 L717.452,2436.2 L717.448,2436.21 L693.114,2436.7 L661.65,2491.9 L634.701,2446.58 C632.626,2447.77 630.507,2448.89 628.365,2449.95 L657.568,2499.06 L657.559,2499.08 L657.567,2499.09 L657.564,2499.09 L662.23,2506.94 L662.233,2506.94 L662.236,2506.95 L662.24,2506.94 L686.574,2506.45 L718.039,2451.24 L724.656,2462.37 L706.331,2493.19 C708.473,2494.26 710.591,2495.37 712.667,2496.56 L728.827,2469.39 L744.987,2496.56 C747.063,2495.37 749.181,2494.26 751.323,2493.19 L732.997,2462.37 L739.615,2451.24 L771.08,2506.45 L795.421,2506.94 L795.424,2506.95 L800.102,2499.08 L800.093,2499.06 L829.296,2449.95 Z" id="Fill-22"></path>
        </g>
    </g>
</svg>