<?xml version="1.0" encoding="UTF-8"?>
<svg width="155px" height="126px" viewBox="0 0 155 126" version="1.1" xmlns="http://www.w3.org/2000/svg" xmlns:xlink="http://www.w3.org/1999/xlink">
    <!-- Generator: Sketch 51.3 (57544) - http://www.bohemiancoding.com/sketch -->
    <title>Fill 45</title>
    <desc>Created with Sketch.</desc>
    <defs></defs>
    <g id="Page-1" stroke="none" stroke-width="1" fill="none" fill-rule="evenodd">
        <g id="Shapes-CC" transform="translate(-1121.000000, -1658.000000)" fill="#1A1919">
            <path d="M1208.9,1773.49 L1241.12,1741.28 L1241.13,1741.28 L1246.77,1735.64 L1236.7,1732.86 L1211.44,1725.9 L1216.7,1724.45 L1231.42,1671.05 L1268.16,1707.79 L1253.43,1761.21 L1208.9,1773.49 Z M1201.27,1772.28 L1198.64,1774.92 L1162.99,1739.27 L1172.38,1736.68 L1198.4,1729.5 L1234.19,1739.37 L1201.27,1772.28 Z M1129.22,1707.69 L1165.97,1670.94 L1168.56,1680.33 L1168.56,1680.32 L1180.79,1724.64 L1185.39,1725.91 L1157.36,1733.64 L1157.35,1733.65 L1150.44,1735.56 L1151.85,1736.97 L1155.84,1740.95 L1188.53,1773.65 L1144.03,1761.37 L1129.22,1707.69 Z M1275.71,1706.51 L1271.39,1702.19 L1271.39,1702.18 L1233.33,1664.12 L1233.34,1664.11 L1227.7,1658.47 L1211.05,1718.83 L1198.43,1722.31 L1186.41,1718.99 L1171.6,1665.31 L1171.59,1665.29 L1169.68,1658.39 L1121.68,1706.39 L1138.41,1767.02 L1198.73,1783.66 L1198.99,1783.41 L1259.08,1766.83 L1275.71,1706.51 Z" id="Fill-45"></path>
        </g>
    </g>
</svg>