<?xml version="1.0" encoding="UTF-8"?>
<svg width="121px" height="128px" viewBox="0 0 121 128" version="1.1" xmlns="http://www.w3.org/2000/svg" xmlns:xlink="http://www.w3.org/1999/xlink">
    <!-- Generator: Sketch 51.3 (57544) - http://www.bohemiancoding.com/sketch -->
    <title>Fill 75</title>
    <desc>Created with Sketch.</desc>
    <defs></defs>
    <g id="Page-1" stroke="none" stroke-width="1" fill="none" fill-rule="evenodd">
        <g id="Shapes-CC" transform="translate(-1596.000000, -533.000000)" fill="#1A1919">
            <path d="M1709.84,629.768 L1700.51,624.472 L1700.51,624.48 L1684.12,615.18 L1684.12,615.157 L1684.11,615.148 L1684.11,557.918 L1709.84,572.519 L1709.84,629.768 Z M1700.51,642.549 L1700.51,642.556 L1656.46,617.56 L1603.4,647.68 L1603.4,638.392 L1606.51,636.629 L1606.51,636.628 L1656.48,608.262 L1709.84,638.538 L1709.84,647.845 L1700.51,642.549 Z M1603.4,578.33 L1603.4,572.371 L1625.6,559.774 L1625.6,616.745 L1625.58,616.753 L1625.58,617.013 L1603.4,629.603 L1603.4,578.33 Z M1664,603.734 L1677.22,596.228 L1677.22,611.24 L1664,603.734 Z M1632.48,594.632 L1648.52,603.734 L1632.48,612.836 L1632.48,594.632 Z M1656.48,542.242 L1677.22,554.011 L1677.22,587.44 L1656.26,599.34 L1632.48,585.843 L1632.48,555.866 L1656.48,542.242 Z M1716.72,574.221 L1716.72,567.663 L1656.46,533.464 L1596.52,567.491 L1596.52,633.512 L1596.5,633.52 L1596.5,642.308 L1596.52,642.3 L1596.52,651.588 L1596.5,651.597 L1596.5,660.385 L1606.51,654.705 L1656.48,626.338 L1709.84,656.615 L1709.86,656.619 L1716.72,660.513 L1716.72,658.315 L1716.72,658.316 L1716.72,574.221 Z" id="Fill-75"></path>
        </g>
    </g>
</svg>