<?xml version="1.0" encoding="UTF-8"?>
<svg width="110px" height="131px" viewBox="0 0 110 131" version="1.1" xmlns="http://www.w3.org/2000/svg" xmlns:xlink="http://www.w3.org/1999/xlink">
    <!-- Generator: Sketch 51.3 (57544) - http://www.bohemiancoding.com/sketch -->
    <title>Fill 38</title>
    <desc>Created with Sketch.</desc>
    <defs></defs>
    <g id="Page-1" stroke="none" stroke-width="1" fill="none" fill-rule="evenodd">
        <g id="Shapes-CC" transform="translate(-1601.000000, -121.000000)" fill="#1A1919">
            <path d="M1656.45,243.183 L1608.88,216.192 L1610.84,215.08 L1656.21,189.328 L1703.77,216.318 L1656.45,243.183 Z M1656.21,129.394 L1703.77,156.384 L1701.81,157.497 L1656.45,183.249 L1608.88,156.258 L1656.21,129.394 Z M1608.02,163.732 L1616.48,168.533 L1616.48,168.526 L1647.64,186.212 L1608.02,208.702 L1608.02,163.732 Z M1696.18,204.044 L1696.18,204.051 L1665.01,186.365 L1704.63,163.875 L1704.63,208.844 L1696.18,204.044 Z M1710.78,152.406 L1656.19,121.425 L1601.85,152.272 L1601.76,152.224 L1601.76,154.22 L1601.76,154.219 L1601.76,220.236 L1601.87,220.171 L1656.46,251.152 L1710.81,220.305 L1710.89,220.353 L1710.89,218.357 L1710.9,218.358 L1710.9,152.341 L1710.78,152.406 Z" id="Fill-38"></path>
        </g>
    </g>
</svg>