<?xml version="1.0" encoding="UTF-8"?>
<svg width="170px" height="83px" viewBox="0 0 170 83" version="1.1" xmlns="http://www.w3.org/2000/svg" xmlns:xlink="http://www.w3.org/1999/xlink">
    <!-- Generator: Sketch 51.3 (57544) - http://www.bohemiancoding.com/sketch -->
    <title>Fill 21</title>
    <desc>Created with Sketch.</desc>
    <defs></defs>
    <g id="Page-1" stroke="none" stroke-width="1" fill="none" fill-rule="evenodd">
        <g id="Shapes-CC" transform="translate(-162.000000, -551.000000)" fill="#1A1919">
            <path d="M303.045,624.014 L268.475,563.365 L268.475,563.364 L261.554,551.221 L256.097,560.397 L256.107,560.415 L246.812,576.047 L237.516,560.415 L237.527,560.397 L232.07,551.221 L225.148,563.364 L225.148,563.365 L190.579,624.014 L162.206,624.591 L167.649,633.745 L196.048,633.169 L232.755,568.771 L241.946,584.229 L222.041,617.705 C224.539,618.951 227.01,620.248 229.432,621.638 L246.812,592.411 L264.192,621.638 C266.613,620.248 269.085,618.951 271.583,617.705 L251.677,584.229 L260.869,568.771 L297.575,633.169 L325.974,633.745 L331.417,624.591 L303.045,624.014" id="Fill-21"></path>
        </g>
    </g>
</svg>