<?xml version="1.0" encoding="UTF-8"?>
<svg width="121px" height="128px" viewBox="0 0 121 128" version="1.1" xmlns="http://www.w3.org/2000/svg" xmlns:xlink="http://www.w3.org/1999/xlink">
    <!-- Generator: Sketch 51.3 (57544) - http://www.bohemiancoding.com/sketch -->
    <title>Fill 70</title>
    <desc>Created with Sketch.</desc>
    <defs></defs>
    <g id="Page-1" stroke="none" stroke-width="1" fill="none" fill-rule="evenodd">
        <g id="Shapes-CC" transform="translate(-661.000000, -2775.000000)" fill="#1A1919">
            <path d="M762.667,2868.87 L725.056,2838.29 L724.857,2836.92 L731.493,2791.26 L760.933,2802.74 L760.932,2802.74 L765.847,2804.66 L773.858,2859.77 L762.667,2868.87 Z M748.386,2880.48 L721.359,2891.02 L694.333,2880.48 L685.55,2873.34 L721.359,2844.22 L757.168,2873.34 L748.386,2880.48 Z M730.869,2894.73 L729.964,2894.38 L732.536,2893.37 L730.869,2894.73 Z M711.85,2894.73 L710.183,2893.37 L712.755,2894.38 L711.85,2894.73 Z M668.861,2859.77 L676.872,2804.66 L681.787,2802.74 L681.786,2802.74 L711.226,2791.26 L717.862,2836.92 L717.663,2838.29 L680.052,2868.87 L668.861,2859.77 Z M721.359,2787.31 L724.871,2788.68 L723.891,2795.41 L723.898,2795.41 L721.359,2812.86 L718.821,2795.41 L718.828,2795.41 L717.848,2788.68 L721.359,2787.31 Z M781.276,2862.68 L772.225,2800.44 L766.678,2798.27 L732.416,2784.91 L732.711,2782.88 L732.709,2782.87 L733.739,2775.78 L731.88,2776.5 L726.629,2778.55 L721.359,2780.6 L716.09,2778.55 L710.839,2776.5 L708.98,2775.78 L710.01,2782.87 L710.008,2782.88 L710.303,2784.91 L676.04,2798.27 L676.041,2798.27 L670.494,2800.44 L661.443,2862.68 L674.553,2873.34 L669.44,2877.5 L676.873,2880.4 L676.885,2880.39 L689.052,2885.13 L709.994,2902.16 L715.686,2899.94 L721.359,2897.73 L727.033,2899.94 L732.725,2902.16 L753.666,2885.13 L765.834,2880.39 L765.846,2880.4 L773.279,2877.5 L768.166,2873.34 L781.276,2862.68 Z" id="Fill-70"></path>
        </g>
    </g>
</svg>