<?xml version="1.0" encoding="UTF-8"?>
<svg width="168px" height="120px" viewBox="0 0 168 120" version="1.1" xmlns="http://www.w3.org/2000/svg" xmlns:xlink="http://www.w3.org/1999/xlink">
    <!-- Generator: Sketch 51.3 (57544) - http://www.bohemiancoding.com/sketch -->
    <title>Fill 71</title>
    <desc>Created with Sketch.</desc>
    <defs></defs>
    <g id="Page-1" stroke="none" stroke-width="1" fill="none" fill-rule="evenodd">
        <g id="Shapes-CC" transform="translate(-1573.000000, -2416.000000)" fill="#1A1919">
            <path d="M1731.61,2470.98 L1731.62,2470.98 L1712.47,2511.31 L1708.27,2520.14 L1706.14,2524.64 L1669.68,2527.3 L1698,2486.88 L1695.52,2481.67 L1669.16,2426.15 L1669.12,2426.07 L1703.79,2423.54 L1733.81,2466.37 L1731.61,2470.98 Z M1608.44,2524.64 L1606.3,2520.14 L1580.77,2466.37 L1610.78,2423.54 L1645.45,2426.07 L1645.42,2426.15 L1619.05,2481.67 L1616.58,2486.88 L1644.9,2527.3 L1608.44,2524.64 Z M1663.21,2427.37 L1665.34,2431.86 L1684.49,2472.19 L1688.69,2481.02 L1688.68,2481.02 L1690.87,2485.64 L1661.25,2527.91 L1657.29,2528.2 L1653.33,2527.91 L1623.7,2485.64 L1625.89,2481.02 L1630.09,2472.19 L1645.04,2440.7 L1649.23,2431.86 L1649.24,2431.86 L1651.37,2427.37 L1657.29,2426.94 L1663.21,2427.37 Z M1740.93,2465.12 L1707.03,2416.75 L1657.29,2420.39 L1607.54,2416.75 L1573.65,2465.12 L1576.12,2470.33 L1602.49,2525.85 L1604.9,2530.93 L1649.74,2534.2 L1650.47,2535.25 L1657.29,2534.75 L1664.11,2535.25 L1664.84,2534.2 L1709.68,2530.93 L1712.09,2525.85 L1738.45,2470.33 L1740.93,2465.12 Z" id="Fill-71"></path>
        </g>
    </g>
</svg>