<?xml version="1.0" encoding="UTF-8"?>
<svg width="137px" height="115px" viewBox="0 0 137 115" version="1.1" xmlns="http://www.w3.org/2000/svg" xmlns:xlink="http://www.w3.org/1999/xlink">
    <!-- Generator: Sketch 51.3 (57544) - http://www.bohemiancoding.com/sketch -->
    <title>Fill 13</title>
    <desc>Created with Sketch.</desc>
    <defs></defs>
    <g id="Page-1" stroke="none" stroke-width="1" fill="none" fill-rule="evenodd">
        <g id="Shapes-CC" transform="translate(-1130.000000, -536.000000)" fill="#1A1919">
            <path d="M1260.3,595.127 L1260.3,600.536 L1212.11,627.888 L1163.67,600.402 L1163.67,548.429 L1172.14,553.237 L1172.14,553.231 L1212.13,575.923 L1260.3,548.579 L1260.3,595.127 Z M1185.58,642.949 L1137.14,615.464 L1137.14,563.491 L1145.61,568.299 L1145.61,568.292 L1157.42,574.995 L1157.42,604.81 L1205.1,631.869 L1185.58,642.949 Z M1257.48,542.201 L1257.48,542.202 L1212.11,567.954 L1163.67,540.468 L1163.66,540.464 L1157.43,536.929 L1157.43,538.924 L1157.42,538.923 L1157.42,567.037 L1137.14,555.53 L1137.13,555.526 L1130.9,551.99 L1130.9,553.986 L1130.89,553.985 L1130.89,619.872 L1185.6,650.919 L1240.02,620.028 L1240.02,620.026 L1266.55,604.966 L1266.55,545.031 L1266.56,545.023 L1266.56,537.045 L1257.48,542.201 Z" id="Fill-13"></path>
        </g>
    </g>
</svg>