<?xml version="1.0" encoding="UTF-8"?>
<svg width="150px" height="116px" viewBox="0 0 150 116" version="1.1" xmlns="http://www.w3.org/2000/svg" xmlns:xlink="http://www.w3.org/1999/xlink">
    <!-- Generator: Sketch 51.3 (57544) - http://www.bohemiancoding.com/sketch -->
    <title>Fill 52</title>
    <desc>Created with Sketch.</desc>
    <defs></defs>
    <g id="Page-1" stroke="none" stroke-width="1" fill="none" fill-rule="evenodd">
        <g id="Shapes-CC" transform="translate(-163.000000, -921.000000)" fill="#1A1919">
            <path d="M275.328,1007.08 L271.35,1005.53 L244.688,995.131 L242.835,993.624 L272.33,969.639 L267.708,937.856 L267.713,937.858 L266.71,930.96 L299.864,943.889 L305.484,982.554 L275.328,1007.08 Z M237.796,1028.82 L206.244,1010.92 L237.572,998.701 L269.168,1011.01 L237.796,1028.82 Z M203.913,1005.49 L200.084,1006.98 L169.928,982.459 L175.548,943.793 L208.703,930.864 L203.083,969.544 L232.695,993.624 L231.177,994.858 L203.914,1005.49 L203.913,1005.49 Z M305.725,939.838 L258.895,921.58 L259.795,927.776 L259.794,927.788 L265.487,966.958 L237.765,989.501 L209.925,966.862 L216.517,921.484 L214.898,922.116 L214.898,922.113 L169.687,939.742 L163.086,985.14 L197.911,1013.46 L197.911,1013.53 L198.19,1013.68 L198.499,1013.94 L198.578,1013.91 L237.808,1036.17 L276.851,1014.01 L276.913,1014.03 L277.158,1013.83 L277.503,1013.64 L277.503,1013.55 L312.326,985.236 L305.725,939.838 Z" id="Fill-52"></path>
        </g>
    </g>
</svg>