<?xml version="1.0" encoding="UTF-8"?>
<svg width="180px" height="134px" viewBox="0 0 180 134" version="1.1" xmlns="http://www.w3.org/2000/svg" xmlns:xlink="http://www.w3.org/1999/xlink">
    <!-- Generator: Sketch 51.3 (57544) - http://www.bohemiancoding.com/sketch -->
    <title>Fill 32</title>
    <desc>Created with Sketch.</desc>
    <defs></defs>
    <g id="Page-1" stroke="none" stroke-width="1" fill="none" fill-rule="evenodd">
        <g id="Shapes-CC" transform="translate(-632.000000, -1262.000000)" fill="#1A1919">
            <path d="M777.362,1389.89 L772.278,1389.89 L772.278,1389.9 L727.271,1389.9 L731.905,1381.73 L731.899,1381.73 L753.769,1343.19 L753.766,1343.19 L769.568,1315.34 L759.024,1296.77 L777.491,1296.77 L803.853,1343.21 L777.362,1389.89 Z M751.334,1296.77 L761.888,1315.36 L749.931,1336.43 L727.416,1296.77 L751.334,1296.77 Z M730.313,1362.04 L716.922,1362.04 L727.621,1343.19 L697.849,1290.74 L697.841,1290.74 L685.451,1268.92 L735.526,1268.92 L747.915,1290.74 L723.996,1290.74 L723.989,1290.73 L716.299,1290.73 L746.087,1343.21 L735.398,1362.04 L730.313,1362.04 Z M693.45,1389.89 L688.365,1389.89 L688.365,1389.9 L643.359,1389.9 L647.993,1381.73 L647.986,1381.73 L669.857,1343.19 L643.504,1296.77 L693.571,1296.77 L704.124,1315.36 L677.633,1362.04 L677.63,1362.06 L674.222,1368.06 L676.146,1368.06 L676.145,1368.07 L705.835,1368.07 L693.45,1389.89 Z M719.941,1343.21 L709.253,1362.04 L685.307,1362.04 L689.941,1353.88 L689.934,1353.88 L707.964,1322.11 L719.941,1343.21 Z M781.761,1290.74 L755.605,1290.74 L739.797,1262.89 L682.031,1262.89 L682.024,1262.88 L674.335,1262.88 L679.304,1271.63 L679.305,1271.63 L690.151,1290.74 L640.084,1290.74 L640.077,1290.73 L632.387,1290.73 L662.177,1343.21 L635.686,1389.89 L635.682,1389.91 L632.275,1395.91 L634.198,1395.91 L634.197,1395.92 L697.699,1395.92 L713.504,1368.07 L731.983,1368.07 L719.598,1389.89 L719.594,1389.91 L716.187,1395.91 L718.11,1395.91 L718.109,1395.92 L781.611,1395.92 L811.533,1343.19 L781.761,1290.74 Z" id="Fill-32"></path>
        </g>
    </g>
</svg>