<?xml version="1.0" encoding="UTF-8"?>
<svg width="101px" height="132px" viewBox="0 0 101 132" version="1.1" xmlns="http://www.w3.org/2000/svg" xmlns:xlink="http://www.w3.org/1999/xlink">
    <!-- Generator: Sketch 51.3 (57544) - http://www.bohemiancoding.com/sketch -->
    <title>Fill 76</title>
    <desc>Created with Sketch.</desc>
    <defs></defs>
    <g id="Page-1" stroke="none" stroke-width="1" fill="none" fill-rule="evenodd">
        <g id="Shapes-CC" transform="translate(-1147.000000, -2411.000000)" fill="#1A1919">
            <path d="M1233.87,2527.76 L1233.87,2527.77 L1197.48,2507.12 L1153.64,2532 L1153.64,2498.46 L1156.2,2497 L1197.49,2473.57 L1241.58,2498.58 L1241.58,2532.14 L1233.87,2527.76 Z M1241.58,2491.34 L1233.87,2486.96 L1233.87,2486.97 L1197.48,2466.31 L1153.64,2491.2 L1153.64,2484.71 L1197.49,2459.82 L1241.58,2484.84 L1241.58,2491.34 Z M1153.64,2448.84 L1153.64,2443.91 L1197.49,2419.02 L1241.58,2444.04 L1241.58,2477.6 L1197.48,2452.57 L1153.64,2477.45 L1153.64,2448.84 Z M1247.27,2445.44 L1247.27,2440.02 L1197.48,2411.77 L1147.95,2439.88 L1147.95,2494.43 L1147.94,2494.44 L1147.94,2501.7 L1147.95,2501.69 L1147.95,2535.23 L1147.94,2535.24 L1147.94,2542.5 L1197.49,2514.37 L1241.58,2539.38 L1241.59,2539.39 L1247.26,2542.6 L1247.26,2540.79 L1247.27,2540.79 L1247.27,2445.44 Z" id="Fill-76"></path>
        </g>
    </g>
</svg>