<?xml version="1.0" encoding="UTF-8"?>
<svg width="157px" height="95px" viewBox="0 0 157 95" version="1.1" xmlns="http://www.w3.org/2000/svg" xmlns:xlink="http://www.w3.org/1999/xlink">
    <!-- Generator: Sketch 51.3 (57544) - http://www.bohemiancoding.com/sketch -->
    <title>Fill 19</title>
    <desc>Created with Sketch.</desc>
    <defs></defs>
    <g id="Page-1" stroke="none" stroke-width="1" fill="none" fill-rule="evenodd">
        <g id="Shapes-CC" transform="translate(-169.000000, -3558.000000)" fill="#1A1919">
            <path d="M247.617,3641.15 L184.398,3605.27 L247.259,3569.59 L310.478,3605.46 L247.617,3641.15 Z M325.241,3608.46 L325.241,3599.75 L325.242,3599.75 L325.242,3588.75 L316.33,3588.75 L316.33,3594.43 L316.327,3594.43 L316.327,3597.44 L247.236,3558.23 L178.548,3597.22 L178.548,3594.43 L178.546,3594.43 L178.546,3588.75 L169.634,3588.75 L169.634,3599.75 L169.636,3599.75 L169.636,3602.27 L169.635,3602.28 L169.635,3610.99 L169.634,3610.99 L169.634,3621.99 L178.546,3621.99 L178.546,3616.31 L178.549,3616.31 L178.549,3613.3 L247.64,3652.51 L316.328,3613.52 L316.328,3616.31 L316.33,3616.31 L316.33,3621.99 L325.242,3621.99 L325.242,3610.99 L325.24,3610.99 L325.24,3608.46 L325.241,3608.46 Z" id="Fill-19"></path>
        </g>
    </g>
</svg>