<?xml version="1.0" encoding="UTF-8"?>
<svg width="110px" height="122px" viewBox="0 0 110 122" version="1.1" xmlns="http://www.w3.org/2000/svg" xmlns:xlink="http://www.w3.org/1999/xlink">
    <!-- Generator: Sketch 51.3 (57544) - http://www.bohemiancoding.com/sketch -->
    <title>Fill 60</title>
    <desc>Created with Sketch.</desc>
    <defs></defs>
    <g id="Page-1" stroke="none" stroke-width="1" fill="none" fill-rule="evenodd">
        <g id="Shapes-CC" transform="translate(-186.000000, -2417.000000)" fill="#1A1919">
            <path d="M241.205,2530.48 L201.496,2507.95 L240.967,2485.55 L280.675,2508.08 L241.205,2530.48 Z M240.967,2425.61 L280.675,2448.15 L241.205,2470.55 L201.496,2448.02 L240.967,2425.61 Z M192.778,2503 L192.778,2458.37 L192.781,2458.37 L192.781,2452.96 L194.482,2452 L201.236,2455.83 L240.257,2477.97 L194.467,2503.96 L192.778,2503 Z M280.935,2500.26 L280.935,2500.27 L241.915,2478.13 L287.705,2452.13 L289.393,2453.09 L289.393,2497.72 L289.391,2497.72 L289.391,2503.13 L287.691,2504.1 L280.935,2500.26 Z M295.656,2447.62 L295.656,2439.64 L287.684,2444.17 L240.951,2417.64 L194.467,2444.03 L192.767,2443.06 L192.751,2443.06 L186.521,2439.52 L186.521,2441.52 L186.517,2441.52 L186.517,2447.15 L186.516,2447.15 L186.516,2501.45 L186.517,2501.45 L186.517,2507.41 L186.529,2507.41 L186.529,2508.47 L186.516,2508.48 L186.516,2516.46 L194.488,2511.93 L241.221,2538.45 L287.705,2512.07 L289.405,2513.03 L289.421,2513.04 L295.651,2516.57 L295.651,2514.58 L295.655,2514.58 L295.655,2508.94 L295.656,2508.94 L295.656,2454.64 L295.655,2454.64 L295.655,2448.69 L295.643,2448.68 L295.643,2447.63 L295.656,2447.62 Z" id="Fill-60"></path>
        </g>
    </g>
</svg>