<?xml version="1.0" encoding="UTF-8"?>
<svg width="137px" height="120px" viewBox="0 0 137 120" version="1.1" xmlns="http://www.w3.org/2000/svg" xmlns:xlink="http://www.w3.org/1999/xlink">
    <!-- Generator: Sketch 51.3 (57544) - http://www.bohemiancoding.com/sketch -->
    <title>Fill 51</title>
    <desc>Created with Sketch.</desc>
    <defs></defs>
    <g id="Page-1" stroke="none" stroke-width="1" fill="none" fill-rule="evenodd">
        <g id="Shapes-CC" transform="translate(-655.000000, -537.000000)" fill="#1A1919">
            <path d="M743.899,649.577 L739.167,647.732 L739.167,647.733 L731.491,644.741 L753.615,636.114 L753.627,636.123 L760.605,633.402 L728.579,607.359 L738.799,599.048 L732.589,556.335 L732.594,556.337 L731.278,547.288 L772.124,563.215 L772.123,563.216 L776.737,565.015 L784.258,616.758 L743.899,649.577 Z M723.416,611.557 L748.38,631.857 L723.416,641.592 L698.452,631.857 L723.416,611.557 Z M707.666,647.733 L707.665,647.732 L702.934,649.577 L662.574,616.758 L670.095,565.015 L674.709,563.216 L674.709,563.215 L715.554,547.288 L714.238,556.337 L714.244,556.335 L708.033,599.048 L718.254,607.359 L686.228,633.402 L693.206,636.123 L693.217,636.114 L715.341,644.741 L707.666,647.733 Z M722.518,544.573 L722.516,544.558 L723.416,538.367 L724.316,544.558 L724.314,544.573 L731.835,596.316 L723.416,603.161 L714.998,596.316 L722.518,544.573 Z M782.725,561.052 L777.518,559.022 L777.518,559.021 L730.025,540.501 L730.024,540.502 L725.095,538.58 L725.094,538.584 L723.476,537.953 L723.484,537.903 L723.416,537.929 L723.349,537.903 L723.356,537.953 L721.738,538.584 L721.738,538.58 L716.808,540.502 L716.808,540.501 L669.315,559.021 L669.315,559.022 L664.108,561.052 L655.61,619.49 L701.191,656.555 L706.534,654.472 L706.535,654.472 L723.416,647.89 L740.297,654.472 L740.298,654.472 L745.642,656.555 L791.223,619.49 L782.725,561.052 Z" id="Fill-51"></path>
        </g>
    </g>
</svg>