<?xml version="1.0" encoding="UTF-8"?>
<svg width="164px" height="103px" viewBox="0 0 164 103" version="1.1" xmlns="http://www.w3.org/2000/svg" xmlns:xlink="http://www.w3.org/1999/xlink">
    <!-- Generator: Sketch 51.3 (57544) - http://www.bohemiancoding.com/sketch -->
    <title>Fill 11</title>
    <desc>Created with Sketch.</desc>
    <defs></defs>
    <g id="Page-1" stroke="none" stroke-width="1" fill="none" fill-rule="evenodd">
        <g id="Shapes-CC" transform="translate(-646.000000, -2043.000000)" fill="#1A1919">
            <path d="M803.549,2105.24 L803.547,2105.24 L803.547,2110.65 L755.36,2138 L744.928,2132.08 L781.794,2111.15 L781.794,2071.04 L803.549,2058.69 L803.549,2105.24 Z M727.356,2134.08 L724.64,2132.54 L728.173,2130.53 L730.888,2132.07 L727.356,2134.08 Z M700.956,2138 L652.518,2110.51 L652.518,2105.24 L652.517,2105.24 L652.517,2058.54 L660.988,2063.35 L660.988,2063.34 L672.667,2069.97 L672.667,2105.05 L672.668,2105.05 L672.668,2111 L710.6,2132.53 L700.956,2138 Z M678.916,2054.62 L687.388,2059.43 L687.388,2059.42 L700.672,2066.96 L700.672,2077.9 L678.916,2065.56 L678.916,2054.62 Z M715.393,2063.35 L715.393,2063.34 L721.144,2066.61 L706.921,2074.68 L706.921,2058.54 L715.393,2063.35 Z M749.145,2058.69 L749.145,2074.54 L735.183,2066.62 L749.145,2058.69 Z M755.394,2115.08 L755.394,2108.97 L755.395,2108.97 L755.395,2086.03 L775.545,2074.59 L775.545,2101.31 L775.543,2101.31 L775.543,2106.72 L737.899,2128.09 L735.183,2126.55 L755.394,2115.08 Z M706.922,2110.51 L706.922,2105.24 L706.921,2105.24 L706.921,2082.66 L728.172,2070.6 L749.145,2082.5 L749.145,2105.24 L749.143,2105.24 L749.143,2110.65 L728.154,2122.56 L706.922,2110.51 Z M678.916,2101.31 L678.916,2073.52 L700.672,2085.86 L700.672,2108.97 L700.673,2108.97 L700.673,2114.92 L721.144,2126.54 L717.611,2128.55 L678.918,2106.59 L678.918,2101.31 L678.916,2101.31 Z M775.545,2054.77 L775.545,2066.61 L755.395,2078.05 L755.395,2066.2 L775.545,2054.77 Z M800.729,2052.31 L781.794,2063.06 L781.794,2051.22 L781.808,2051.21 L781.808,2043.23 L772.724,2048.39 L755.395,2058.23 L755.395,2055.14 L755.408,2055.14 L755.408,2047.16 L746.324,2052.31 L728.154,2062.63 L706.922,2050.58 L706.907,2050.58 L700.677,2047.04 L700.677,2049.04 L700.673,2049.04 L700.673,2054.67 L700.672,2054.67 L700.672,2059 L678.918,2046.66 L678.902,2046.65 L672.672,2043.12 L672.672,2045.11 L672.668,2045.11 L672.668,2050.75 L672.667,2050.75 L672.667,2062.01 L652.518,2050.58 L652.503,2050.58 L646.273,2047.04 L646.273,2049.04 L646.269,2049.04 L646.269,2054.67 L646.267,2054.67 L646.267,2108.97 L646.269,2108.97 L646.269,2114.92 L700.973,2145.97 L717.629,2136.52 L727.372,2142.05 L737.917,2136.06 L755.377,2145.97 L809.798,2115.08 L809.798,2108.97 L809.799,2108.97 L809.799,2055.14 L809.813,2055.14 L809.813,2047.16 L800.729,2052.31 Z" id="Fill-11"></path>
        </g>
    </g>
</svg>