<svg xmlns="http://www.w3.org/2000/svg" width="108" height="125" fill="none" stroke="#000"><path d="M56 124c25.333-18.356 38-38.856 38-61.5S81.333 19.356 56 1C30.667 19.356 18 39.856 18 62.5s12.667 43.144 38 61.5z"/><path d="M55.4 122c28.67-12.52 45.417-29.826 50.24-51.918S102.45 25.298 81.6 2C52.93 14.52 36.183 31.826 31.36 53.918S34.55 98.702 55.4 122z"/><path d="M23.244 3C3.727 27.454-2.947 50.543 3.223 72.266S27.237 110.234 56.756 121c19.516-24.454 26.19-47.543 20.02-69.266S52.763 13.766 23.244 3z"/></svg>