<svg xmlns="http://www.w3.org/2000/svg" xmlns:xlink="http://www.w3.org/1999/xlink" width="120" height="130"><defs><linearGradient id="A" x1="52.894%" x2="57.712%" y1="0%" y2="45.295%"><stop offset="0%" stop-color="#26b7ff"/><stop offset="42.431%" stop-color="#068bf0"/><stop offset="100%" stop-color="#28b7fe"/></linearGradient><path id="B" d="M53.5-28.5h5.032a8 8 0 0 1 5.343 2.046C72.958-18.303 77.5-10.15 77.5-2c0 8.833-5.333 17.667-16 26.5s-16 17.667-16 26.5c0 7.07 3.415 14.138 10.246 21.206 1.2 1.24 1.165 3.218-.076 4.416-.582.563-1.36.877-2.17.877h-5.032a8 8 0 0 1-5.343-2.046C34.042 67.303 29.5 59.15 29.5 51c0-8.833 5.333-17.667 16-26.5s16-17.667 16-26.5c0-7.07-3.415-14.138-10.246-21.206-1.2-1.24-1.165-3.218.076-4.416.582-.563 1.36-.877 2.17-.877z"/><filter id="C" width="185.4%" height="138.7%" x="-40.6%" y="-14.6%"><feOffset dx="1" dy="5" in="SourceAlpha"/><feGaussianBlur stdDeviation="6"/><feComposite in2="SourceAlpha" operator="out"/><feColorMatrix values="0 0 0 0 0 0 0 0 0 0 0 0 0 0 0 0 0 0 0.05 0"/></filter><path id="D" d="M54.5-4.5h5.032a8 8 0 0 1 5.343 2.046C73.958 5.697 78.5 13.85 78.5 22c0 8.833-5.333 17.667-16 26.5s-16 17.667-16 26.5c0 7.07 3.415 14.138 10.246 21.206 1.2 1.24 1.165 3.218-.076 4.416-.582.563-1.36.877-2.17.877h-5.032a8 8 0 0 1-5.343-2.046C35.042 91.303 30.5 83.15 30.5 75c0-8.833 5.333-17.667 16-26.5s16-17.667 16-26.5c0-7.07-3.415-14.138-10.246-21.206-1.2-1.24-1.165-3.218.076-4.416.582-.563 1.36-.877 2.17-.877z"/><path id="E" d="M54.5 20.5h5.032a8 8 0 0 1 5.343 2.046C73.958 30.697 78.5 38.85 78.5 47c0 8.833-5.333 17.667-16 26.5s-16 17.667-16 26.5c0 7.07 3.415 14.138 10.246 21.206 1.2 1.24 1.165 3.218-.076 4.416-.582.563-1.36.877-2.17.877h-5.032a8 8 0 0 1-5.343-2.046C35.042 116.303 30.5 108.15 30.5 100c0-8.833 5.333-17.667 16-26.5s16-17.667 16-26.5c0-7.07-3.415-14.138-10.246-21.206-1.2-1.24-1.165-3.218.076-4.416.582-.563 1.36-.877 2.17-.877z"/></defs><g fill-rule="evenodd" transform="matrix(0 1 1 0 10 16)"><g transform="rotate(90 53.5 24.5)" fill="#000"><use filter="url(#C)" xlink:href="#B"/><path stroke="url(#A)" stroke-linejoin="square" d="M53.5-28c-.68 0-1.334.264-1.823.737-1.042 1.007-1.07 2.668-.064 3.71C58.528-16.4 62-9.212 62-2c0 9.005-5.4 17.965-16.18 26.885C35.256 33.632 30 42.338 30 51c0 8 4.472 16.017 13.46 24.082A7.5 7.5 0 0 0 48.468 77H53.5c.68 0 1.334-.264 1.823-.737 1.042-1.007 1.07-2.668.064-3.71C48.472 65.4 45 58.212 45 51c0-9.005 5.4-17.965 16.18-26.885C71.744 15.368 77 6.662 77-2c0-8-4.472-16.017-13.46-24.082A7.5 7.5 0 0 0 58.532-28H53.5z"/></g><g transform="rotate(90 54.5 48.5)" fill="#000"><use filter="url(#C)" xlink:href="#D"/><path stroke="url(#A)" stroke-linejoin="square" d="M54.5-4c-.68 0-1.334.264-1.823.737-1.042 1.007-1.07 2.668-.064 3.71C59.528 7.6 63 14.788 63 22c0 9.005-5.4 17.965-16.18 26.885C36.256 57.632 31 66.338 31 75c0 8 4.472 16.017 13.46 24.082A7.5 7.5 0 0 0 49.468 101H54.5c.68 0 1.334-.264 1.823-.737 1.042-1.007 1.07-2.668.064-3.71C49.472 89.4 46 82.212 46 75c0-9.005 5.4-17.965 16.18-26.885C72.744 39.368 78 30.662 78 22c0-8-4.472-16.017-13.46-24.082A7.5 7.5 0 0 0 59.532-4H54.5z"/></g><g transform="rotate(90 54.5 73.5)" fill="#000"><use filter="url(#C)" xlink:href="#E"/><path stroke="url(#A)" stroke-linejoin="square" d="M54.5 21c-.68 0-1.334.264-1.823.737-1.042 1.007-1.07 2.668-.064 3.71C59.528 32.6 63 39.788 63 47c0 9.005-5.4 17.965-16.18 26.885C36.256 82.632 31 91.338 31 100c0 8 4.472 16.017 13.46 24.082A7.5 7.5 0 0 0 49.468 126H54.5c.68 0 1.334-.264 1.823-.737 1.042-1.007 1.07-2.668.064-3.71C49.472 114.4 46 107.212 46 100c0-9.005 5.4-17.965 16.18-26.885C72.744 64.368 78 55.662 78 47c0-8-4.472-16.017-13.46-24.082A7.5 7.5 0 0 0 59.532 21H54.5z"/></g></g></svg>