<svg xmlns="http://www.w3.org/2000/svg" width="96" height="126" fill="none" stroke="#979797" stroke-width=".5"><path d="M48 1L1 33.2v68.424L48 125"/><path d="M48 4L3 34.903v65.665L48 123"/><path d="M48 6L4 35.864v63.458L48 121"/><path d="M48 8L6 36.825v61.25L48 119"/><path d="M48 10L8 37.527v58.49L48 116"/><path d="M48 12L9 38.488v56.284L48 114"/><path d="M48 14L11 39.45v54.077L48 112m1-95L13 41.15v51.32L49 110m-1-91L14 42.112v49.1L48 108"/><path d="M48 21L16 43.073v46.904L48 106m1-83L18 43.775V87.92L49 103m-1-78L19 44.736v41.938L48 101"/><path d="M48 27L21 45.698v39.73L48 99"/><path d="M48 30L22 47.4v36.97L48 97"/><path d="M48 32L24 48.36v34.763L48 95"/><path d="M48 34L26 49.32V81.88L48 93"/><path d="M48 36L27 50.023V79.82L48 90"/><path d="M48 38L29 50.984v27.6L48 88"/><path d="M48 40L31 51.945V77.33L48 86"/><path d="M48 43L32 53.647V76.27L48 84"/><path d="M48 45l-14 9.608v20.417L48 82"/><path d="M48 47l-12 8.57v18.21L48 80"/><path d="M48 49l-11 7.272v15.45L48 77m0 48l47-32.2V24.375L48 1"/><path d="M49 123l45-30.903V26.432L49 4m-1 117l44-29.864V27.678L48 6m0 113l42-28.825v-61.25L48 8m1 108l40-27.527v-58.5L49 10m-1 104l39-26.488V31.228L48 12m0 100l37-25.45V32.473L48 14m0 96l36-24.15V34.53L48 17"/><path d="M48 108l34-23.112v-49.1L48 19"/><path d="M48 106l32-22.074V37.023L48 21"/><path d="M48 103l31-20.775V38.08L48 23"/><path d="M48 101l29-19.736V39.326L48 25"/><path d="M48 99l27-18.697v-39.73L48 27"/><path d="M48 97l26-17.4V42.63L48 30"/><path d="M48 95l24-16.36V43.876L48 32"/><path d="M48 93l22-15.32V45.122L48 34"/><path d="M48 90l21-14.023V46.18L48 36"/><path d="M48 88l19-12.984v-27.6L48 38"/><path d="M48 86l17-11.945V48.67L48 40"/><path d="M48 84l16-10.647V50.73L48 43"/><path d="M48 82l14-9.61V51.974L48 45"/><path d="M48 80l12-8.57V53.22L48 47"/><path d="M48 77l11-7.27v-15.45L48 49"/></svg>