<svg xmlns="http://www.w3.org/2000/svg" width="148" height="124" viewBox="0 0 148 124">
  <g fill="none" fill-rule="evenodd" stroke="#000" stroke-linecap="square" transform="translate(0 1)">
    <polyline points=".513 24.84 49.068 .173 147.279 .173 98.473 24.84 98.473 122.389 147.279 98.374"/>
    <path d="M.801641237 24.8163889L.801641237 122.356907M147.275868.318053704L147.275868 97.8585722M.801641237 24.8163889L98.0696825 24.8163889M98.6418474 122.203309L147.848033 97.907013"/>
    <polyline points="2.548 49.072 39.04 30.532 112.852 30.532 76.171 49.072 76.171 122.386 112.852 104.338"/>
    <path d="M2.76439588 49.0537667L.80148866 122.361767M112.5 31L112.5 104M3 49.5L76 49.5M114 114L113 104"/>
    <g transform="translate(1 61)">
      <polyline points="3.828 12.51 28.316 .15 77.848 .15 53.233 12.51 53.233 61.386 77.848 49.354"/>
      <path d="M3.97364118,12.4981415 L0.0384647059,61.3707756"/>
    </g>
    <path d="M78.5 61L78.5 110M5 73.5L54 73.5M130 106L78 110"/>
    <g transform="translate(1 91)">
      <polyline points="5.788 6.446 18.018 .141 42.754 .141 30.461 6.446 30.461 31.379 42.754 25.241"/>
      <path d="M5.8609,6.43969524 L0.0385491228,31.3707429"/>
    </g>
    <path d="M43.5 92L43.5 117M7 97.5L32 97.5M146 98L44 116"/>
  </g>
</svg>
