<svg xmlns="http://www.w3.org/2000/svg" width="207" height="85" fill="none" stroke="#000"><g transform="matrix(1 0 0 -1 106 84)" stroke-linecap="square"><path d="M.347 16.762L33.154.116h66.36L66.536 16.762v65.826l32.977-16.205M.542 16.746v65.82M99.5.215v65.82M.542 16.746h65.722m.387 65.716l33.247-16.395"/><path d="M1.72 33.113l24.658-12.5H76.25l-24.784 12.5v49.473l24.784-12.18"/><path d="M1.868 33.1L.542 82.57M76.5 21v49M2 33.5h49M77 77l-1-7M3.6 49.475l16.64-8.373h33.656L37.17 49.475v33.1l16.726-8.15M3.7 49.466L1.026 82.574"/><path d="M53.5 41v33M3 49.5h33M88 71l-35 3M4.904 65.432l8.247-4.335h16.683l-8.3 4.335v17.14l8.3-4.22"/><path d="M4.953 65.427l-3.927 17.14M29.5 62v17M5 65.5h17m77 .5L30 78"/></g><g transform="matrix(-1 0 0 -1 101 84)" stroke-linecap="square"><path d="M.347 16.762L33.154.116h66.36L66.536 16.762v65.826l32.977-16.205M.542 16.746v65.82M99.5.215v65.82M.542 16.746h65.722m.387 65.716l33.247-16.395"/><path d="M1.72 33.113l24.658-12.5H76.25l-24.784 12.5v49.473l24.784-12.18"/><path d="M1.868 33.1L.542 82.57M76.5 21v49M2 33.5h49M77 77l-1-7M3.6 49.475l16.64-8.373h33.656L37.17 49.475v33.1l16.726-8.15M3.7 49.466L1.026 82.574"/><path d="M53.5 41v33M3 49.5h33M88 71l-35 3M4.904 65.432l8.247-4.335h16.683l-8.3 4.335v17.14l8.3-4.22"/><path d="M4.953 65.427l-3.927 17.14M29.5 62v17M5 65.5h17m77 .5L30 78"/></g></svg>