<svg xmlns="http://www.w3.org/2000/svg" width="115" height="120"><g fill="none" stroke="#000" transform="rotate(313 52.95 75.65)" stroke-width=".3"><rect width="93" height="93" x="23" y="20" rx="21"/><rect width="93" height="93" x="20" y="20" rx="21" transform="rotate(48 66.5 66.5)"/><rect width="74" height="74" x="23" y="39" rx="17"/><rect width="74" height="74" x="20" y="39" rx="17" transform="rotate(48 57 76)"/><rect width="59" height="59" x="23" y="54" rx="14"/><rect width="59" height="59" x="20" y="54" rx="14" transform="rotate(48 49.5 83.5)"/><rect width="87" height="87" x="23" y="26" rx="20"/><rect width="87" height="87" x="20" y="26" rx="20" transform="rotate(48 63.5 69.5)"/><rect width="69" height="69" x="23" y="44" rx="16"/><rect width="69" height="69" x="20" y="44" rx="16" transform="rotate(48 54.5 78.5)"/><rect width="55" height="55" x="23" y="58" rx="13"/><rect width="55" height="55" x="20" y="58" rx="13" transform="rotate(48 47.5 85.5)"/><rect width="82" height="82" x="23" y="31" rx="19"/><rect width="82" height="82" x="20" y="31" rx="19" transform="rotate(48 61 72)"/><rect width="65" height="65" x="23" y="48" rx="15"/><rect width="65" height="65" x="20" y="48" rx="15" transform="rotate(48 52.5 80.5)"/><rect width="52" height="52" x="23" y="61" rx="12"/><rect width="52" height="52" x="20" y="61" rx="12" transform="rotate(48 46 87)"/><rect width="76" height="76" x="23" y="37" rx="17"/><rect width="76" height="76" x="20" y="37" rx="17" transform="rotate(48 58 75)"/><rect width="60" height="60" x="23" y="53" rx="14"/><rect width="60" height="60" x="20" y="53" rx="14" transform="rotate(48 50 83)"/><rect width="48" height="48" x="23" y="65" rx="11"/><rect width="48" height="48" x="20" y="65" rx="11" transform="rotate(48 44 89)"/><rect width="68" height="68" x="23" y="45" rx="16"/><rect width="68" height="68" x="20" y="45" rx="16" transform="rotate(48 54 79)"/><rect width="54" height="54" x="23" y="59" rx="12"/><rect width="54" height="54" x="20" y="59" rx="12" transform="rotate(48 47 86)"/><rect width="43" height="43" x="23" y="70" rx="10"/><rect width="43" height="43" x="20" y="70" rx="10" transform="rotate(48 41.5 91.5)"/></g></svg>