<svg xmlns="http://www.w3.org/2000/svg" xmlns:xlink="http://www.w3.org/1999/xlink" width="173" height="120"><defs><linearGradient id="A" x1="51.484%" x2="53.956%" y1="0%" y2="45.295%"><stop offset="0%" stop-color="#26b7ff"/><stop offset="42.431%" stop-color="#068bf0"/><stop offset="100%" stop-color="#28b7fe"/></linearGradient><path id="B" d="M74-50h4.244a8 8 0 0 1 6.265 3.025C93.503-35.65 98-24.325 98-13c0 12.333-5.333 24.667-16 37S66 48.667 66 61c0 10.3 3.712 20.58 11.137 30.87A3.87 3.87 0 0 1 74 98h-4.244a8 8 0 0 1-6.265-3.025C54.497 83.65 50 72.325 50 61c0-12.333 5.333-24.667 16-37S82-.667 82-13c0-10.3-3.712-20.58-11.137-30.87A3.87 3.87 0 0 1 74-50z"/><filter id="C" width="185.4%" height="127.7%" x="-40.6%" y="-10.5%"><feOffset dx="1" dy="5" in="SourceAlpha"/><feGaussianBlur stdDeviation="6"/><feComposite in2="SourceAlpha" operator="out"/><feColorMatrix values="0 0 0 0 0 0 0 0 0 0 0 0 0 0 0 0 0 0 0.05 0"/></filter><path id="D" d="M75.5-26.5h4.244a8 8 0 0 1 6.265 3.025C95.003-12.15 99.5-.825 99.5 10.5c0 12.333-5.333 24.667-16 37s-16 24.667-16 37c0 10.3 3.712 20.58 11.137 30.87A3.87 3.87 0 0 1 75.5 121.5h-4.244a8 8 0 0 1-6.265-3.025C55.997 107.15 51.5 95.825 51.5 84.5c0-12.333 5.333-24.667 16-37s16-24.667 16-37c0-10.3-3.712-20.58-11.137-30.87A3.87 3.87 0 0 1 75.5-26.5z"/><path id="E" d="M75.5-1.5h4.244a8 8 0 0 1 6.265 3.025C95.003 12.85 99.5 24.175 99.5 35.5c0 12.333-5.333 24.667-16 37s-16 24.667-16 37c0 10.3 3.712 20.58 11.137 30.87A3.87 3.87 0 0 1 75.5 146.5h-4.244a8 8 0 0 1-6.265-3.025C55.997 132.15 51.5 120.825 51.5 109.5c0-12.333 5.333-24.667 16-37s16-24.667 16-37c0-10.3-3.712-20.58-11.137-30.87A3.87 3.87 0 0 1 75.5-1.5z"/></defs><g fill-rule="evenodd" transform="translate(16.5 10.5)"><g transform="rotate(90 74 24)" fill="#000"><use filter="url(#C)" xlink:href="#B"/><path stroke="url(#A)" stroke-linejoin="square" d="M74-49.5a3.37 3.37 0 0 0-2.731 5.339C78.752-33.79 82.5-23.4 82.5-13c0 12.464-5.382 24.91-16.122 37.327C55.785 36.575 50.5 48.797 50.5 61c0 11.204 4.455 22.423 13.382 33.664a7.5 7.5 0 0 0 5.873 2.836H74a3.37 3.37 0 0 0 2.731-5.339C69.248 81.79 65.5 71.4 65.5 61c0-12.464 5.382-24.91 16.122-37.327C92.215 11.425 97.5-.797 97.5-13c0-11.204-4.455-22.423-13.382-33.664a7.5 7.5 0 0 0-5.873-2.836H74z"/></g><g transform="rotate(90 75.5 47.5)" fill="#000"><use filter="url(#C)" xlink:href="#D"/><path stroke="url(#A)" stroke-linejoin="square" d="M75.5-26a3.37 3.37 0 0 0-2.731 5.339C80.252-10.29 84 .1 84 10.5c0 12.464-5.382 24.91-16.122 37.327C57.285 60.075 52 72.297 52 84.5c0 11.204 4.455 22.423 13.382 33.664A7.5 7.5 0 0 0 71.256 121H75.5a3.37 3.37 0 0 0 2.731-5.339C70.748 105.29 67 94.9 67 84.5c0-12.464 5.382-24.91 16.122-37.327C93.715 34.925 99 22.703 99 10.5c0-11.204-4.455-22.423-13.382-33.664A7.5 7.5 0 0 0 79.744-26H75.5z"/></g><g transform="rotate(90 75.5 72.5)" fill="#000"><use filter="url(#C)" xlink:href="#E"/><path stroke="url(#A)" stroke-linejoin="square" d="M75.5-1a3.37 3.37 0 0 0-2.731 5.339C80.252 14.71 84 25.1 84 35.5c0 12.464-5.382 24.91-16.122 37.327C57.285 85.075 52 97.297 52 109.5c0 11.204 4.455 22.423 13.382 33.664A7.5 7.5 0 0 0 71.256 146H75.5a3.37 3.37 0 0 0 2.731-5.339C70.748 130.29 67 119.9 67 109.5c0-12.464 5.382-24.91 16.122-37.327C93.715 59.925 99 47.703 99 35.5c0-11.204-4.455-22.423-13.382-33.664A7.5 7.5 0 0 0 79.744-1H75.5z"/></g></g></svg>