<svg xmlns="http://www.w3.org/2000/svg" width="108" height="125" viewBox="0 0 108 125">
  <g fill="none" fill-rule="evenodd" transform="translate(1 1)">
    <path stroke="#000" d="M55,123 C80.3328727,104.643978 93,84.1444382 93,61.5 C93,38.8555618 80.3328727,18.3560225 55,0 C29.6671273,18.3560225 17,38.8555618 17,61.5 C17,84.1444382 29.6671273,104.643978 55,123 Z"/>
    <path fill="#000" stroke="#FFF" d="M54.3995087,123 C83.0692307,110.479617 99.8168491,93.1735301 104.640981,71.0817397 C109.463732,48.9913292 101.450696,26.297876 80.6004913,3 C51.9307693,15.5203832 35.1831509,32.8264699 30.3590186,54.9182603 C25.5362684,77.0086708 33.5493044,99.702124 54.3995087,123 Z"/>
    <path fill="#000" stroke="#FFF" d="M22.2436441,4 C2.72732794,28.4539746 -3.94714938,51.5429672 2.22299087,73.2656006 C8.39174176,94.9896113 26.2366599,111.234411 55.7563559,122 C75.2726721,97.5460254 81.9471494,74.4570328 75.7770091,52.7343994 C69.6082582,31.0103887 51.7633401,14.7655889 22.2436441,4 Z"/>
  </g>
</svg>
