<svg xmlns="http://www.w3.org/2000/svg" width="129" height="131" fill="none" stroke="#000" stroke-width=".3"><path d="M77.165 48.396C57.783 31.548 28.405 33.61 11.557 52.99c-2.832 3.26-5.13 6.8-6.902 10.515a46.61 46.61 0 0 0 1.537 42.938c2.534 4.467 5.856 8.587 9.952 12.148 19.382 16.848 48.893 14.935 65.74-4.447"/><path d="M79.056 50.287C60.716 34.345 32.922 36.29 16.98 54.63c-2.68 3.083-4.855 6.433-6.53 9.95C4.26 77.56 4.864 92.8 11.903 105.2a43.95 43.95 0 0 0 9.417 11.495c18.34 15.942 46.267 14.135 62.21-4.205"/><path d="M82.082 53.313C65.41 38.82 40.148 40.583 25.655 57.255c-2.437 2.803-4.414 5.85-5.937 9.045-5.625 11.8-5.077 25.655 1.322 36.937 2.18 3.842 5.037 7.387 8.56 10.45 16.672 14.493 42.066 12.856 56.56-3.817"/><path d="M77.92 49.153c-18.965-16.486-47.71-14.47-64.196 4.494-2.77 3.19-5.02 6.653-6.753 10.29-6.4 13.422-5.775 29.18 1.504 42.015 2.48 4.37 5.73 8.402 9.738 11.887 18.965 16.486 47.842 14.614 64.328-4.35"/><path d="M81.325 52.557C64.236 37.702 38.34 39.5 23.486 56.6A41.03 41.03 0 0 0 17.4 65.87a41.1 41.1 0 0 0 1.356 37.86 40.93 40.93 0 0 0 8.775 10.711c17.09 14.855 43.116 13.176 57.97-3.914"/><path d="M79.812 51.043c-17.923-15.58-45.084-13.68-60.665 4.244-2.62 3.013-4.744 6.287-6.382 9.724-6.047 12.683-5.457 27.577 1.422 39.706 2.342 4.13 5.415 7.94 9.203 11.233 17.922 15.58 45.216 13.815 60.797-4.108"/><path d="M83.545 54.777C67.29 40.646 42.66 42.363 28.53 58.62a39 39 0 0 0-5.788 8.819 39.09 39.09 0 0 0 1.289 36.012c2.125 3.747 4.91 7.202 8.347 10.19 16.255 14.13 40.31 11.828 54.44-4.427"/><path d="M78.678 49.91C60.13 33.785 32.02 35.755 15.895 54.303c-2.71 3.118-4.9 6.506-6.605 10.062-6.258 13.127-5.648 28.54 1.47 41.092 2.424 4.274 5.604 8.218 9.524 11.625 18.548 16.124 46.792 14.295 62.915-4.253"/><path d="M81.704 52.935c-16.88-14.675-42.46-12.89-57.133 3.992-2.467 2.838-4.47 5.922-6.012 9.158-5.695 11.948-5.14 25.975 1.34 37.398a40.46 40.46 0 0 0 8.668 10.581c16.88 14.674 42.592 13.015 57.266-3.866"/><path d="M80.57 51.8c-17.506-15.218-44.034-13.363-59.252 4.144a42.01 42.01 0 0 0-6.234 9.497c-5.906 12.388-5.33 26.935 1.388 38.782a41.94 41.94 0 0 0 8.99 10.973c17.505 15.217 44.166 13.495 59.384-4.01"/><path d="M84.302 55.533c-15.84-13.77-39.833-12.098-53.602 3.74a37.98 37.98 0 0 0-5.64 8.593 38.09 38.09 0 0 0 1.256 35.089 37.95 37.95 0 0 0 8.133 9.928c15.84 13.768 39.26 11.507 53.027-4.33m-36.274-26.74C70.584 98.66 99.962 96.6 116.8 77.218c2.832-3.26 5.13-6.8 6.902-10.515 6.54-13.716 5.9-29.822-1.537-42.938-2.534-4.467-5.856-8.587-9.952-12.147C92.84-5.23 63.33-3.318 46.482 16.064"/><path d="M49.31 79.92c18.34 15.942 46.134 13.996 62.077-4.344 2.68-3.083 4.855-6.433 6.53-9.95 6.187-12.98 5.584-28.22-1.455-40.63a43.93 43.93 0 0 0-9.417-11.494C88.707-2.44 60.78-.632 44.837 17.708"/><path d="M46.285 76.896c16.672 14.493 41.934 12.73 56.427-3.942 2.436-2.803 4.413-5.85 5.937-9.045a40.1 40.1 0 0 0-1.322-36.937c-2.18-3.842-5.038-7.387-8.56-10.45C82.094 2.03 56.7 3.667 42.206 20.34"/><path d="M50.445 81.056c18.965 16.486 47.7 14.47 64.196-4.494a45.58 45.58 0 0 0 6.754-10.289 45.61 45.61 0 0 0-1.505-42.015 45.46 45.46 0 0 0-9.737-11.887C91.187-4.114 62.3-2.243 45.824 16.722"/><path d="M47.04 77.652C64.13 92.508 90.025 90.7 104.88 73.6a41.03 41.03 0 0 0 6.086-9.271 41.1 41.1 0 0 0-1.355-37.86 40.95 40.95 0 0 0-8.775-10.711C83.747.913 57.72 2.593 42.864 19.682"/><path d="M48.554 79.165c17.923 15.58 45.084 13.68 60.665-4.244 2.62-3.013 4.744-6.287 6.382-9.723a43.1 43.1 0 0 0-1.422-39.706c-2.342-4.13-5.415-7.94-9.202-11.234C87.054-1.322 59.76.443 44.18 18.366"/><path d="M44.822 75.432c16.255 14.13 40.883 12.414 55.014-3.842a39.02 39.02 0 0 0 5.789-8.818c5.485-11.505 4.95-25.013-1.29-36.013-2.125-3.747-4.91-7.202-8.347-10.188-16.256-14.13-40.31-11.83-54.44 4.426"/><path d="M49.69 80.3c18.548 16.123 46.66 14.153 62.783-4.395a44.55 44.55 0 0 0 6.606-10.062c6.257-13.127 5.647-28.54-1.472-41.09-2.424-4.275-5.604-8.218-9.523-11.626C89.534-2.998 61.3-1.17 45.167 17.38"/><path d="M46.663 77.274c16.88 14.675 42.46 12.89 57.133-3.992a40.52 40.52 0 0 0 6.012-9.158c5.695-11.947 5.14-25.975-1.34-37.398a40.44 40.44 0 0 0-8.668-10.581C82.92 1.47 57.2 3.13 42.535 20.01"/><path d="M47.798 78.408c17.506 15.218 44.034 13.363 59.252-4.143 2.56-2.943 4.634-6.14 6.234-9.498 5.907-12.388 5.33-26.935-1.388-38.782-2.288-4.035-5.29-7.756-8.99-10.973C85.4-.205 58.74 1.517 43.522 19.023"/><path d="M44.065 74.676c15.84 13.77 39.833 12.097 53.602-3.742 2.315-2.662 4.193-5.556 5.64-8.593 5.343-11.21 4.822-24.37-1.257-35.09-2.07-3.65-4.785-7.017-8.132-9.928C78.08 3.556 54.66 5.817 40.89 21.655"/></svg>