<svg xmlns="http://www.w3.org/2000/svg" width="129" height="131" fill="none" stroke="#000" stroke-width=".3"><path d="M51.835 48.396c19.382-16.848 48.76-14.787 65.608 4.595 2.832 3.26 5.13 6.8 6.902 10.515a46.61 46.61 0 0 1-1.537 42.938c-2.534 4.467-5.856 8.587-9.952 12.148-19.382 16.848-48.893 14.935-65.74-4.447"/><path d="M49.944 50.287c18.34-15.942 46.134-13.996 62.077 4.344 2.68 3.083 4.855 6.433 6.53 9.95 6.187 12.98 5.584 28.22-1.455 40.63a43.95 43.95 0 0 1-9.417 11.495c-18.34 15.942-46.267 14.135-62.21-4.205"/><path d="M46.918 53.313c16.673-14.493 41.934-12.73 56.427 3.942 2.437 2.803 4.414 5.85 5.937 9.045 5.625 11.8 5.077 25.655-1.322 36.937-2.18 3.842-5.037 7.387-8.56 10.45-16.672 14.493-42.066 12.856-56.56-3.817"/><path d="M51.08 49.153c18.965-16.486 47.71-14.47 64.196 4.494 2.77 3.19 5.02 6.653 6.753 10.29 6.4 13.422 5.775 29.18-1.504 42.015-2.48 4.37-5.73 8.402-9.738 11.887-18.965 16.486-47.842 14.614-64.328-4.35"/><path d="M47.675 52.557C64.764 37.702 90.66 39.5 105.514 56.6a41.03 41.03 0 0 1 6.086 9.271 41.1 41.1 0 0 1-1.356 37.86 40.93 40.93 0 0 1-8.775 10.711c-17.09 14.855-43.116 13.176-57.97-3.914"/><path d="M49.188 51.043c17.923-15.58 45.084-13.68 60.665 4.244 2.62 3.013 4.744 6.287 6.382 9.724 6.047 12.683 5.457 27.577-1.422 39.706-2.342 4.13-5.415 7.94-9.203 11.233-17.922 15.58-45.216 13.815-60.797-4.108"/><path d="M45.455 54.777C61.71 40.646 86.34 42.363 100.47 58.62a39 39 0 0 1 5.788 8.819 39.09 39.09 0 0 1-1.289 36.012c-2.125 3.747-4.91 7.202-8.347 10.19-16.255 14.13-40.31 11.828-54.44-4.427"/><path d="M50.322 49.91c18.548-16.124 46.66-14.154 62.783 4.394 2.71 3.118 4.9 6.506 6.605 10.062 6.258 13.127 5.648 28.54-1.47 41.092-2.424 4.274-5.604 8.218-9.524 11.625-18.548 16.124-46.792 14.295-62.915-4.253"/><path d="M47.296 52.935c16.88-14.675 42.46-12.89 57.133 3.992 2.467 2.838 4.47 5.922 6.012 9.158 5.695 11.948 5.14 25.975-1.34 37.398a40.46 40.46 0 0 1-8.668 10.581c-16.88 14.674-42.592 13.015-57.266-3.866"/><path d="M48.43 51.8c17.506-15.218 44.034-13.363 59.252 4.144a42.01 42.01 0 0 1 6.234 9.497c5.906 12.388 5.33 26.935-1.388 38.782a41.94 41.94 0 0 1-8.99 10.973c-17.505 15.217-44.166 13.495-59.384-4.01"/><path d="M44.698 55.533c15.84-13.77 39.833-12.098 53.602 3.74a37.98 37.98 0 0 1 5.64 8.593 38.09 38.09 0 0 1-1.256 35.089 37.95 37.95 0 0 1-8.133 9.928c-15.84 13.768-39.26 11.507-53.027-4.33m36.274-26.74C58.416 98.66 29.038 96.6 12.2 77.218c-2.832-3.26-5.13-6.8-6.902-10.515-6.54-13.716-5.9-29.822 1.537-42.938 2.534-4.467 5.856-8.587 9.952-12.147C36.16-5.23 65.67-3.318 82.518 16.064"/><path d="M79.69 79.92c-18.34 15.942-46.134 13.996-62.077-4.344-2.68-3.083-4.855-6.433-6.53-9.95-6.187-12.98-5.584-28.22 1.455-40.63a43.93 43.93 0 0 1 9.417-11.494C40.293-2.44 68.22-.632 84.163 17.708"/><path d="M82.715 76.896C66.043 91.39 40.78 89.626 26.288 72.954c-2.436-2.803-4.413-5.85-5.937-9.045a40.1 40.1 0 0 1 1.322-36.937c2.18-3.842 5.038-7.387 8.56-10.45C46.906 2.03 72.3 3.667 86.794 20.34"/><path d="M78.555 81.056c-18.965 16.486-47.7 14.47-64.196-4.494a45.58 45.58 0 0 1-6.754-10.289A45.61 45.61 0 0 1 9.11 24.258a45.46 45.46 0 0 1 9.737-11.887C37.813-4.114 66.7-2.243 83.176 16.722"/><path d="M81.96 77.652C64.87 92.508 38.975 90.7 24.12 73.6a41.03 41.03 0 0 1-6.086-9.271 41.1 41.1 0 0 1 1.355-37.86 40.95 40.95 0 0 1 8.775-10.711C45.253.913 71.28 2.593 86.136 19.682"/><path d="M80.446 79.165c-17.923 15.58-45.084 13.68-60.665-4.244-2.62-3.013-4.744-6.287-6.382-9.723a43.1 43.1 0 0 1 1.422-39.706c2.342-4.13 5.415-7.94 9.202-11.234C41.946-1.322 69.24.443 84.82 18.366"/><path d="M84.178 75.432C67.923 89.563 43.295 87.846 29.164 71.6a39.02 39.02 0 0 1-5.789-8.818c-5.485-11.505-4.95-25.013 1.29-36.013 2.125-3.747 4.91-7.202 8.347-10.188 16.256-14.13 40.31-11.83 54.44 4.426"/><path d="M79.31 80.3c-18.548 16.123-46.66 14.153-62.783-4.395a44.55 44.55 0 0 1-6.606-10.062c-6.257-13.127-5.647-28.54 1.472-41.09 2.424-4.275 5.604-8.218 9.523-11.626C39.466-2.998 67.7-1.17 83.833 17.38"/><path d="M82.337 77.274c-16.88 14.675-42.46 12.89-57.133-3.992a40.52 40.52 0 0 1-6.012-9.158c-5.695-11.947-5.14-25.975 1.34-37.398a40.44 40.44 0 0 1 8.668-10.581C46.08 1.47 71.8 3.13 86.465 20.01"/><path d="M81.202 78.408C63.696 93.626 37.168 91.77 21.95 74.265c-2.56-2.943-4.634-6.14-6.234-9.498-5.907-12.388-5.33-26.935 1.388-38.782 2.288-4.035 5.29-7.756 8.99-10.973C43.6-.205 70.26 1.517 85.478 19.023"/><path d="M84.935 74.676c-15.84 13.77-39.833 12.097-53.602-3.742-2.315-2.662-4.193-5.556-5.64-8.593-5.343-11.21-4.822-24.37 1.257-35.09 2.07-3.65 4.785-7.017 8.132-9.928C50.92 3.556 74.34 5.817 88.11 21.655"/></svg>