<svg xmlns="http://www.w3.org/2000/svg" width="124" height="124" viewBox="0 0 124 124">
  <g fill-rule="evenodd">
    <polygon points="62.5 0 78 15.5 62.5 31 47 15.5"/>
    <polygon points="94.5 14 110 29.5 94.5 45 79 29.5" transform="rotate(45 94.5 29.5)"/>
    <polygon points="108.5 47 124 62.5 108.5 78 93 62.5" transform="rotate(90 108.5 62.5)"/>
    <polygon points="94.5 79 110 94.5 94.5 110 79 94.5" transform="rotate(135 94.5 94.5)"/>
    <polygon points="62.5 93 78 108.5 62.5 124 47 108.5" transform="rotate(180 62.5 108.5)"/>
    <polygon points="29.5 79 45 94.5 29.5 110 14 94.5" transform="rotate(-135 29.5 94.5)"/>
    <polygon points="15.5 47 31 62.5 15.5 78 0 62.5" transform="rotate(-90 15.5 62.5)"/>
    <polygon points="29.5 14 45 29.5 29.5 45 14 29.5" transform="rotate(-45 29.5 29.5)"/>
  </g>
</svg>
