<svg xmlns="http://www.w3.org/2000/svg" width="95" height="105"><g fill="none" stroke="#000" transform="rotate(315 48.207 45.793)" stroke-width=".5"><circle cx="46.5" cy="46.5" r="46.5"/><circle cx="34" cy="59" r="34"/><circle cx="36.5" cy="56.5" r="36.5"/><circle cx="26.5" cy="66.5" r="26.5"/><circle cx="40" cy="53" r="40"/><circle cx="29" cy="64" r="29"/><circle cx="31.5" cy="61.5" r="31.5"/><circle cx="23" cy="70" r="23"/><circle cx="44.5" cy="48.5" r="44.5"/><circle cx="32.5" cy="60.5" r="32.5"/><circle cx="35" cy="58" r="35"/><circle cx="25.5" cy="67.5" r="25.5"/><circle cx="38.5" cy="54.5" r="38.5"/><circle cx="28" cy="65" r="28"/><circle cx="30" cy="63" r="30"/><circle cx="22" cy="71" r="22"/><circle cx="42.5" cy="50.5" r="42.5"/><circle cx="31" cy="62" r="31"/><circle cx="33.5" cy="59.5" r="33.5"/><circle cx="24.5" cy="68.5" r="24.5"/><circle cx="36.5" cy="56.5" r="36.5"/><circle cx="26.5" cy="66.5" r="26.5"/><circle cx="28.5" cy="64.5" r="28.5"/><circle cx="21" cy="72" r="21"/></g></svg>