<svg xmlns="http://www.w3.org/2000/svg" width="106" height="107" fill-rule="evenodd"><path d="M42 1.6l-4.358 2.516a8 8 0 0 0-3.604 4.443c-3.79 11.6-3.648 20.93.428 28 4.417 7.65 13.452 12.633 27.106 14.95s22.7 7.3 27.106 14.95c3.534 6.122 4.11 13.95 1.73 23.488-.418 1.674.6 3.37 2.274 3.787.786.196 1.617.08 2.318-.325l4.358-2.516a8 8 0 0 0 3.604-4.443c3.79-11.6 3.648-20.93-.428-28-4.417-7.65-13.452-12.633-27.106-14.95s-22.7-7.3-27.106-14.95c-3.534-6.122-4.11-13.95-1.73-23.488.418-1.674-.6-3.37-2.274-3.787-.786-.196-1.617-.08-2.318.325z"/><path d="M43.5.5h-5.032a8 8 0 0 0-5.343 2.046C24.042 10.697 19.5 18.85 19.5 27c0 8.833 5.333 17.667 16 26.5s16 17.667 16 26.5c0 7.07-3.415 14.138-10.246 21.206-1.2 1.24-1.165 3.218.076 4.416.582.563 1.36.877 2.17.877h5.032a8 8 0 0 0 5.343-2.046C62.958 96.303 67.5 88.15 67.5 80c0-8.833-5.333-17.667-16-26.5s-16-17.667-16-26.5c0-7.07 3.415-14.138 10.246-21.206 1.2-1.24 1.165-3.218-.076-4.416C45.088.815 44.3.5 43.5.5z"/><path d="M44.21 3.713l-4.632-1.966a8 8 0 0 0-5.718-.204C22.313 5.497 14.947 11.226 11.762 18.73c-3.45 8.13-1.994 18.346 4.374 30.645S23.96 71.888 20.5 80.02c-2.762 6.507-8.668 11.68-17.717 15.517-1.588.674-2.33 2.507-1.656 4.095.316.746.9 1.34 1.655 1.656l4.632 1.966a8 8 0 0 0 5.718.204c11.546-3.954 18.912-9.683 22.097-17.186 3.45-8.13 1.994-18.346-4.374-30.645S23.04 33.112 26.5 24.98c2.762-6.507 8.668-11.68 17.717-15.517 1.588-.674 2.33-2.507 1.656-4.095-.316-.746-.9-1.34-1.655-1.656z"/></svg>