<svg width="48" height="28" viewBox="0 0 48 28" fill="none" xmlns="http://www.w3.org/2000/svg">
<path fill-rule="evenodd" clip-rule="evenodd" d="M46 1H2C1.44772 1 1 1.44772 1 2V26C1 26.5523 1.44772 27 2 27H46C46.5523 27 47 26.5523 47 26V2C47 1.44772 46.5523 1 46 1ZM2 0C0.895431 0 0 0.895431 0 2L0 26C0 27.1046 0.895432 28 2 28H46C47.1046 28 48 27.1046 48 26V2C48 0.895431 47.1046 0 46 0L2 0Z" fill="black" fill-opacity="0.6"/>
<path d="M25 18C25 17.4477 25.4477 17 26 17H34C34.5523 17 35 17.4477 35 18V19C35 19.5523 34.5523 20 34 20H26C25.4477 20 25 19.5523 25 19V18Z" fill="black" fill-opacity="0.4"/>
<path d="M22 8C22 7.44772 22.4477 7 23 7H37C37.5523 7 38 7.44772 38 8V9C38 9.55228 37.5523 10 37 10H23C22.4477 10 22 9.55228 22 9V8Z" fill="black" fill-opacity="0.4"/>
<path d="M22 13C22 12.4477 22.4477 12 23 12H37C37.5523 12 38 12.4477 38 13V14C38 14.5523 37.5523 15 37 15H23C22.4477 15 22 14.5523 22 14V13Z" fill="black" fill-opacity="0.4"/>
<path d="M4 7C4 6.44772 4.44772 6 5 6H11C11.5523 6 12 6.44772 12 7V21C12 21.5523 11.5523 22 11 22H5C4.44772 22 4 21.5523 4 21V7Z" fill="black" fill-opacity="0.6"/>
</svg>
