<svg width="48" height="28" viewBox="0 0 48 28" fill="none" xmlns="http://www.w3.org/2000/svg">
<path fill-rule="evenodd" clip-rule="evenodd" d="M46 1H2C1.44772 1 1 1.44772 1 2V26C1 26.5523 1.44772 27 2 27H46C46.5523 27 47 26.5523 47 26V2C47 1.44772 46.5523 1 46 1ZM2 0C0.895431 0 0 0.895431 0 2L0 26C0 27.1046 0.895432 28 2 28H46C47.1046 28 48 27.1046 48 26V2C48 0.895431 47.1046 0 46 0L2 0Z" fill="black" fill-opacity="0.6"/>
<path d="M4 22C4 21.4477 4.44772 21 5 21H14C14.5523 21 15 21.4477 15 22V23C15 23.5523 14.5523 24 14 24H5C4.44771 24 4 23.5523 4 23V22Z" fill="black" fill-opacity="0.4"/>
<path d="M4 17C4 16.4477 4.44772 16 5 16H19C19.5523 16 20 16.4477 20 17V18C20 18.5523 19.5523 19 19 19H5C4.44772 19 4 18.5523 4 18V17Z" fill="black" fill-opacity="0.4"/>
<path d="M16 5C16 4.44772 16.4477 4 17 4H31C31.5523 4 32 4.44772 32 5V11C32 11.5523 31.5523 12 31 12H17C16.4477 12 16 11.5523 16 11V5Z" fill="black" fill-opacity="0.6"/>
<path d="M36 17C36 16.4477 36.4477 16 37 16H43C43.5523 16 44 16.4477 44 17V23C44 23.5523 43.5523 24 43 24H37C36.4477 24 36 23.5523 36 23V17Z" fill="black" fill-opacity="0.4"/>
</svg>
