<svg width="48" height="28" viewBox="0 0 48 28" fill="none" xmlns="http://www.w3.org/2000/svg">
<path fill-rule="evenodd" clip-rule="evenodd" d="M46 1H2C1.44772 1 1 1.44772 1 2V26C1 26.5523 1.44772 27 2 27H46C46.5523 27 47 26.5523 47 26V2C47 1.44772 46.5523 1 46 1ZM2 0C0.895431 0 0 0.895431 0 2L0 26C0 27.1046 0.895432 28 2 28H46C47.1046 28 48 27.1046 48 26V2C48 0.895431 47.1046 0 46 0L2 0Z" fill="black" fill-opacity="0.6"/>
<path d="M1 2C1 1.44772 1.44772 1 2 1H24V27H2C1.44772 27 1 26.5523 1 26V2Z" fill="black" fill-opacity="0.6"/>
<path d="M28 13C28 12.4477 28.4477 12 29 12H42C42.5523 12 43 12.4477 43 13V14C43 14.5523 42.5523 15 42 15H29C28.4477 15 28 14.5523 28 14V13Z" fill="black" fill-opacity="0.4"/>
<path d="M28 18C28 17.4477 28.4477 17 29 17H37C37.5523 17 38 17.4477 38 18V19C38 19.5523 37.5523 20 37 20H29C28.4477 20 28 19.5523 28 19V18Z" fill="black" fill-opacity="0.4"/>
<path d="M28 8C28 7.44772 28.4477 7 29 7H42C42.5523 7 43 7.44772 43 8V9C43 9.55228 42.5523 10 42 10H29C28.4477 10 28 9.55228 28 9V8Z" fill="black" fill-opacity="0.4"/>
<path d="M8.5 12.5L5 17H19L14.5 11L11 15.5L8.5 12.5Z" fill="white"/>
</svg>
