<svg width="128" height="108" viewBox="0 0 128 108" fill="none" xmlns="http://www.w3.org/2000/svg">
<path d="M128 99.8228C128 99.5143 128 99.36 127.848 99.0514L112.152 63.5657H15.8476L0.152381 99.0514C0 99.2057 0 99.5143 0 99.8228V106.149C0 107.074 0.761905 108 1.82857 108H126.171C127.238 108 128 107.074 128 106.149V99.8228Z" fill="#00367D"/>
<path d="M112.762 63.4114H15.2381V1.85143C15.2381 0.771429 16.1524 0 17.0667 0H110.933C112 0 112.762 0.771429 112.762 1.85143V63.4114Z" fill="#0060C5"/>
<path d="M17.0666 0C16.7619 0 16.4571 0.154286 16.1523 0.308571L112.762 36.5657V1.85143C112.762 0.771429 112 0 110.933 0H108.19H17.0666Z" fill="#00367D"/>
<path d="M127.848 99.2057L112.762 63.2572H15.2383L0.152555 99.2057C-0.304588 100.44 0.457317 101.829 1.82875 101.829H126.172C127.543 101.829 128.305 100.44 127.848 99.2057Z" fill="#0A89F1"/>
<path d="M74.6667 103.371H53.3334C52.5715 103.371 51.8096 102.754 51.8096 101.829C51.8096 101.057 52.4191 100.286 53.3334 100.286H74.6667C75.4286 100.286 76.1905 100.903 76.1905 101.829C76.1905 102.6 75.581 103.371 74.6667 103.371Z" fill="#0A89F1"/>
<path d="M45.4096 98.7428H82.4381C83.0477 98.7428 83.6572 98.1257 83.5048 97.5086L82.2858 85.9371C82.2858 85.32 81.6762 84.8571 81.2191 84.8571H46.6286C46.0191 84.8571 45.5619 85.32 45.5619 85.9371L44.3429 97.5086C44.1905 98.1257 44.8 98.7428 45.4096 98.7428Z" fill="#65BEFE"/>
<path d="M12.1905 81.7714H115.81L109.714 66.3428H18.2857L12.1905 81.7714Z" fill="#65BEFE"/>
<path d="M108.191 4.62859H19.8096V58.6286H108.191V4.62859Z" fill="white"/>
<path d="M108.19 33.9429V4.62859H28.6476L108.19 33.9429Z" fill="#C4EDFE"/>
<path d="M115.81 81.7715H12.1905V83.3143H115.81V81.7715Z" fill="#00367D"/>
<path d="M15.8476 72.5143L15.2381 74.0571H112.762L112.152 72.5143H15.8476Z" fill="#0A89F1"/>
<path d="M114.59 78.6856L113.981 77.1428H14.0191L13.4095 78.6856H114.59Z" fill="#0A89F1"/>
<path d="M17.6762 67.8857L17.0667 69.4285H110.933L110.324 67.8857H17.6762Z" fill="#0A89F1"/>
<path d="M27.4286 66.3428H25.9048L21.3334 81.7714H22.8572L27.4286 66.3428Z" fill="#0A89F1"/>
<path d="M38.0953 66.3428H36.5715L33.5239 81.7714H35.0477L38.0953 66.3428Z" fill="#0A89F1"/>
<path d="M48.762 66.3428H47.2382L45.7144 81.7714H47.2382L48.762 66.3428Z" fill="#0A89F1"/>
<path d="M59.4286 66.3428H57.9048V81.7714H59.4286V66.3428Z" fill="#0A89F1"/>
<path d="M70.0953 66.3428H68.5715V81.7714H70.0953V66.3428Z" fill="#0A89F1"/>
<path d="M80.7619 66.3428H79.2381L80.7619 81.7714H82.2857L80.7619 66.3428Z" fill="#0A89F1"/>
<path d="M91.4286 66.3428H89.9048L92.9524 81.7714H94.4762L91.4286 66.3428Z" fill="#0A89F1"/>
<path d="M102.095 66.3428H100.571L105.143 81.7714H106.667L102.095 66.3428Z" fill="#0A89F1"/>
<path d="M60.3429 17.7428L53.9429 17.8971C52.7238 17.8971 52.2667 19.4399 53.181 20.2114L58.2096 24.3771L56.5334 30.5485C56.2286 31.6285 57.4476 32.5542 58.3619 31.9371L63.6953 28.3885L69.0286 31.9371C69.9429 32.5542 71.1619 31.6285 70.8572 30.5485L69.181 24.3771L73.1429 21.1371L60.6476 16.5085L60.3429 17.7428Z" fill="#65BEFE"/>
<path d="M86.2477 38.7256H41.2953C40.5334 38.7256 39.7715 39.3428 39.7715 40.2685V43.8171C39.7715 44.5885 40.381 45.3599 41.2953 45.3599H86.2477C87.0096 45.3599 87.7715 44.7428 87.7715 43.8171V40.2685C87.7715 39.4971 87.0096 38.7256 86.2477 38.7256Z" fill="#65BEFE"/>
<path d="M78.0191 49.0628H49.3715C48.9143 49.0628 48.6096 49.3714 48.6096 49.8342V51.2228C48.6096 51.6857 48.9143 51.9942 49.3715 51.9942H78.0191C78.4762 51.9942 78.781 51.6857 78.781 51.2228V49.8342C78.9334 49.3714 78.4762 49.0628 78.0191 49.0628Z" fill="#65BEFE"/>
<path d="M73.6 17.8971L67.2 17.7428L64.9143 11.5714C64.4571 10.4914 62.9333 10.4914 62.6286 11.5714L60.8 16.5085L73.2952 21.1371L74.3619 20.2114C75.2762 19.44 74.819 17.8971 73.6 17.8971Z" fill="#0A89F1"/>
</svg>
