<svg width="42" height="42" viewBox="0 0 42 42" fill="none" xmlns="http://www.w3.org/2000/svg">
<g clip-path="url(#clip0_40000045_21598)">
<path d="M32.0001 11.9996H22.0001C21.7349 11.9996 21.4805 12.105 21.293 12.2925C21.1054 12.48 21.0001 12.7344 21.0001 12.9996V16.2696L18.6001 12.1096C18.4249 11.8042 18.1723 11.5504 17.8676 11.3739C17.563 11.1974 17.2171 11.1045 16.8651 11.1045C16.513 11.1045 16.1672 11.1974 15.8625 11.3739C15.5579 11.5504 15.3052 11.8042 15.1301 12.1096L9.13007 22.4996C9.0423 22.6516 8.99609 22.8241 8.99609 22.9996C8.99609 23.1751 9.0423 23.3476 9.13007 23.4996C9.21817 23.6522 9.34504 23.7788 9.49781 23.8666C9.65059 23.9544 9.82386 24.0003 10.0001 23.9996H14.2901C14.0959 24.6485 13.9982 25.3223 14.0001 25.9996C14.0001 27.8561 14.7376 29.6366 16.0503 30.9493C17.3631 32.2621 19.1436 32.9996 21.0001 32.9996C22.8566 32.9996 24.6371 32.2621 25.9498 30.9493C27.2626 29.6366 28.0001 27.8561 28.0001 25.9996C28.0019 25.3223 27.9042 24.6485 27.7101 23.9996H32.0001C32.2653 23.9996 32.5196 23.8942 32.7072 23.7067C32.8947 23.5192 33.0001 23.2648 33.0001 22.9996V12.9996C33.0001 12.7344 32.8947 12.48 32.7072 12.2925C32.5196 12.105 32.2653 11.9996 32.0001 11.9996ZM11.7301 21.9996L16.8601 13.1096L20.2901 18.9996C19.29 19.1109 18.3257 19.4365 17.4628 19.9542C16.6 20.4719 15.8589 21.1696 15.2901 21.9996H11.7301ZM21.0001 30.9996C20.0112 30.9996 19.0445 30.7063 18.2222 30.1569C17.4 29.6075 16.7591 28.8266 16.3807 27.913C16.0022 26.9994 15.9032 25.9941 16.0961 25.0241C16.2891 24.0542 16.7653 23.1633 17.4645 22.4641C18.1638 21.7648 19.0547 21.2886 20.0246 21.0957C20.9945 20.9028 21.9999 21.0018 22.9135 21.3802C23.8271 21.7586 24.608 22.3995 25.1574 23.2218C25.7068 24.044 26.0001 25.0107 26.0001 25.9996C26.0001 27.3257 25.4733 28.5974 24.5356 29.5351C23.5979 30.4728 22.3262 30.9996 21.0001 30.9996ZM31.0001 21.9996H26.7401C25.8319 20.7031 24.515 19.7488 23.0001 19.2896V13.9996H31.0001V21.9996Z" fill="#7C7C7C"/>
</g>
<defs>
<clipPath id="clip0_40000045_21598">
<rect width="24" height="24" fill="white" transform="translate(9 9)"/>
</clipPath>
</defs>
</svg>
