<svg width="42" height="42" viewBox="0 0 42 42" fill="none" xmlns="http://www.w3.org/2000/svg">
<rect width="42" height="42" rx="21" fill="#E5F2EB"/>
<g clip-path="url(#clip0_40000024_996)">
<path d="M28 9H14C12.6744 9.00159 11.4036 9.52888 10.4662 10.4662C9.52888 11.4036 9.00159 12.6744 9 14L9 28C9.00159 29.3256 9.52888 30.5964 10.4662 31.5338C11.4036 32.4711 12.6744 32.9984 14 33H28C29.3256 32.9984 30.5964 32.4711 31.5338 31.5338C32.4711 30.5964 32.9984 29.3256 33 28V14C32.9984 12.6744 32.4711 11.4036 31.5338 10.4662C30.5964 9.52888 29.3256 9.00159 28 9V9ZM26 19C25.7348 19 25.4804 18.8946 25.2929 18.7071C25.1054 18.5196 25 18.2652 25 18C25 17.7348 24.8946 17.4804 24.7071 17.2929C24.5196 17.1054 24.2652 17 24 17H22V25H23C23.2652 25 23.5196 25.1054 23.7071 25.2929C23.8946 25.4804 24 25.7348 24 26C24 26.2652 23.8946 26.5196 23.7071 26.7071C23.5196 26.8946 23.2652 27 23 27H19C18.7348 27 18.4804 26.8946 18.2929 26.7071C18.1054 26.5196 18 26.2652 18 26C18 25.7348 18.1054 25.4804 18.2929 25.2929C18.4804 25.1054 18.7348 25 19 25H20V17H18C17.7348 17 17.4804 17.1054 17.2929 17.2929C17.1054 17.4804 17 17.7348 17 18C17 18.2652 16.8946 18.5196 16.7071 18.7071C16.5196 18.8946 16.2652 19 16 19C15.7348 19 15.4804 18.8946 15.2929 18.7071C15.1054 18.5196 15 18.2652 15 18C15 17.2044 15.3161 16.4413 15.8787 15.8787C16.4413 15.3161 17.2044 15 18 15H24C24.7956 15 25.5587 15.3161 26.1213 15.8787C26.6839 16.4413 27 17.2044 27 18C27 18.2652 26.8946 18.5196 26.7071 18.7071C26.5196 18.8946 26.2652 19 26 19Z" fill="#006128"/>
</g>
<defs>
<clipPath id="clip0_40000024_996">
<rect width="24" height="24" fill="white" transform="translate(9 9)"/>
</clipPath>
</defs>
</svg>
