<svg width="42" height="42" viewBox="0 0 42 42" fill="none" xmlns="http://www.w3.org/2000/svg">
<path d="M14.5 11C16.1057 11 17.4579 12.0815 17.8701 13.5557L24.1768 14.3994C24.6381 13.0056 25.9515 12 27.5 12C29.433 12 31 13.567 31 15.5C31 17.0854 29.9455 18.4231 28.5 18.8535V22.1455C29.9457 22.5758 31 23.9145 31 25.5C31 27.433 29.433 29 27.5 29C26.0492 29 24.8051 28.117 24.2744 26.8594L23.5117 26.9619L23.2471 24.9795L24.0566 24.8711C24.293 23.5685 25.2501 22.5176 26.5 22.1455V18.8535C25.3413 18.5085 24.4345 17.5808 24.1201 16.4092L17.833 15.5684C17.4819 16.6645 16.6057 17.5243 15.5 17.8535V24.1455C16.3607 24.4017 17.0811 24.9805 17.5244 25.7412L18.4092 25.624L18.6738 27.6064L17.9932 27.6963C17.8913 29.5379 16.3671 31 14.5 31C12.567 31 11 29.433 11 27.5C11 25.9145 12.0543 24.5758 13.5 24.1455V17.8535C12.0545 17.4231 11 16.0854 11 14.5C11 12.567 12.567 11 14.5 11ZM14.5 26C13.6716 26 13 26.6716 13 27.5C13 28.3284 13.6716 29 14.5 29C15.3284 29 16 28.3284 16 27.5C16 26.6716 15.3284 26 14.5 26ZM22.3018 27.123L19.8828 27.4453L19.6191 25.4629L22.0381 25.1406L22.3018 27.123ZM27.5 24C26.6716 24 26 24.6716 26 25.5C26 26.3284 26.6716 27 27.5 27C28.3284 27 29 26.3284 29 25.5C29 24.6716 28.3284 24 27.5 24ZM27.5 14C26.6716 14 26 14.6716 26 15.5C26 16.3284 26.6716 17 27.5 17C28.3284 17 29 16.3284 29 15.5C29 14.6716 28.3284 14 27.5 14ZM14.5 13C13.6716 13 13 13.6716 13 14.5C13 15.3284 13.6716 16 14.5 16C15.3284 16 16 15.3284 16 14.5C16 13.6716 15.3284 13 14.5 13Z" fill="#666666"/>
</svg>
