<svg width="62" height="34" viewBox="0 0 62 34" fill="none" xmlns="http://www.w3.org/2000/svg">
<path d="M8 0.602417H61.458V32.6649H8C3.85787 32.6649 0.5 29.3071 0.5 25.1649V8.10242C0.5 3.96028 3.85786 0.602417 8 0.602417Z" fill="#F5F5F5"/>
<path d="M8 0.602417H61.458V32.6649H8C3.85787 32.6649 0.5 29.3071 0.5 25.1649V8.10242C0.5 3.96028 3.85786 0.602417 8 0.602417Z" stroke="#CCCCCC"/>
<g clip-path="url(#clip0_40000128_8033)">
<path d="M24.9997 21.4923H50.4787V19.5757H24.9997V21.4923ZM24.9997 17.525L50.4787 17.659V11.909L24.9997 11.775V17.525ZM11.4785 11.7755L11.4785 21.4923H21.0618V11.7755H11.4785Z" fill="#007A33"/>
</g>
<defs>
<clipPath id="clip0_40000128_8033">
<rect width="39" height="9.71731" fill="white" transform="translate(11.4785 11.775)"/>
</clipPath>
</defs>
</svg>
