<svg xmlns="http://www.w3.org/2000/svg" viewBox="0 0 681.42 123.29"><title>Asset 1</title><g id="Layer_2" data-name="Layer 2"><g id="Layer_1-2" data-name="Layer 1"><path d="M0,2H27.59V98.78H87.36v22.48H0Z" fill="#f53b57"/><path d="M186.77,59.78H212v48.37a72.55,72.55,0,0,1-22.49,11.24,87.62,87.62,0,0,1-25.72,3.9q-18.56,0-33.37-7.91a58.93,58.93,0,0,1-23.25-22,60.52,60.52,0,0,1-8.43-31.76,60.56,60.56,0,0,1,8.43-31.77,58.74,58.74,0,0,1,23.42-22Q145.56,0,164.29,0a73.78,73.78,0,0,1,28.44,5.28,56.58,56.58,0,0,1,21.46,15.33L196.48,37Q183.7,23.49,165.65,23.51a42.2,42.2,0,0,0-20.27,4.76,34.23,34.23,0,0,0-13.79,13.46,39.48,39.48,0,0,0-4.94,19.92,39.2,39.2,0,0,0,4.94,19.76A35,35,0,0,0,145.3,95a40.68,40.68,0,0,0,20,4.85,44.7,44.7,0,0,0,21.46-5.11Z" fill="#10bcf9"/><path d="M366.64,121.26l-.17-71.53-35.09,58.93H319L284,51.27v70H258.16V2H281L325.6,76.13,369.54,2h22.64l.34,119.22Z" fill="#ffa800"/><path d="M486.82,74.43l-16,16.68v30.15H443.39V2h27.42v55.7L523.6,2h30.66L504.87,55.17l52.28,66.09H525Z" fill="#09c46b"/><path d="M651.78,121.26l-23-33.21H603.41v33.21H575.83V2h51.6q15.84,0,27.5,5.28a40.87,40.87,0,0,1,18,15q6.3,9.72,6.3,23T672.82,68.2a40.56,40.56,0,0,1-18.15,14.74l26.75,38.32Zm-7-91.38q-6.48-5.35-18.91-5.36H603.41V66.08h22.48q12.43,0,18.91-5.46t6.47-15.31C651.27,38.6,649.12,33.47,644.8,29.88Z" fill="#3c40c6"/><g opacity="0.3"><path d="M102.65,3.81a65.78,65.78,0,0,1,31.57,7.54A56.91,56.91,0,0,1,156.11,32a56.29,56.29,0,0,1,8,29.61,55.8,55.8,0,0,1-29.85,50.29,65.56,65.56,0,0,1-31.57,7.54A66.08,66.08,0,0,1,71,111.94,56.06,56.06,0,0,1,49.12,91.29a56.81,56.81,0,0,1-7.89-29.64A56.8,56.8,0,0,1,49.12,32,56,56,0,0,1,71,11.36a66.2,66.2,0,0,1,31.66-7.55m0,99.8a41.88,41.88,0,0,0,21-5.35,38.9,38.9,0,0,0,14.8-15,43.77,43.77,0,0,0,5.34-21.62A43.76,43.76,0,0,0,138.42,40a38.7,38.7,0,0,0-14.8-15,41.75,41.75,0,0,0-21-5.35A41.74,41.74,0,0,0,81.7,25,38.71,38.71,0,0,0,66.88,40a43.76,43.76,0,0,0-5.33,21.61,43.77,43.77,0,0,0,5.33,21.62,38.82,38.82,0,0,0,14.82,15,41.81,41.81,0,0,0,21,5.35M102.65,0A69.75,69.75,0,0,0,69.19,8,59.45,59.45,0,0,0,45.86,30.06a60.23,60.23,0,0,0-8.44,31.59,60.27,60.27,0,0,0,8.44,31.6,59.5,59.5,0,0,0,23.33,22,69.63,69.63,0,0,0,33.46,8q18.57,0,33.38-8a59.61,59.61,0,0,0,31.85-53.65A59.64,59.64,0,0,0,136,8a69.24,69.24,0,0,0-33.38-8Zm0,99.8A37.88,37.88,0,0,1,83.58,95,34.87,34.87,0,0,1,70.21,81.41a39.77,39.77,0,0,1-4.85-19.76A39.73,39.73,0,0,1,70.21,41.9,34.67,34.67,0,0,1,83.58,28.36a37.67,37.67,0,0,1,19.07-4.85,37.71,37.71,0,0,1,19.08,4.85A34.74,34.74,0,0,1,135.1,41.9,39.84,39.84,0,0,1,140,61.65a39.88,39.88,0,0,1-4.85,19.76A34.94,34.94,0,0,1,121.73,95a37.91,37.91,0,0,1-19.08,4.85Z" fill="#4f4f4f"/></g><g opacity="0.3"><path d="M241.32,3.81a65.78,65.78,0,0,1,31.57,7.54A56.84,56.84,0,0,1,294.78,32a56.29,56.29,0,0,1,8,29.61,55.8,55.8,0,0,1-29.85,50.29,70.05,70.05,0,0,1-63.23,0A56,56,0,0,1,187.8,91.29a56.72,56.72,0,0,1-7.89-29.64A56.71,56.71,0,0,1,187.8,32a55.93,55.93,0,0,1,21.86-20.66,66.23,66.23,0,0,1,31.66-7.55m0,99.8a41.88,41.88,0,0,0,21-5.35,38.93,38.93,0,0,0,14.81-15,43.77,43.77,0,0,0,5.33-21.62A43.76,43.76,0,0,0,277.1,40a38.66,38.66,0,0,0-14.81-15,43.77,43.77,0,0,0-41.92,0,38.71,38.71,0,0,0-14.82,15,43.73,43.73,0,0,0-5.33,21.61,43.67,43.67,0,0,0,5.34,21.62,38.79,38.79,0,0,0,14.81,15,41.81,41.81,0,0,0,20.95,5.35M241.32,0a69.75,69.75,0,0,0-33.46,8,59.45,59.45,0,0,0-23.33,22.06,60.22,60.22,0,0,0-8.43,31.59,60.26,60.26,0,0,0,8.43,31.6,59.5,59.5,0,0,0,23.33,22,69.63,69.63,0,0,0,33.46,8q18.57,0,33.39-8a59.63,59.63,0,0,0,31.84-53.65A59.66,59.66,0,0,0,274.71,8a69.3,69.3,0,0,0-33.39-8Zm0,99.8A37.88,37.88,0,0,1,222.25,95a34.94,34.94,0,0,1-13.37-13.54A39.77,39.77,0,0,1,204,61.65a39.73,39.73,0,0,1,4.85-19.75,34.74,34.74,0,0,1,13.37-13.54,39.94,39.94,0,0,1,38.15,0A34.74,34.74,0,0,1,273.77,41.9a39.73,39.73,0,0,1,4.85,19.75,39.77,39.77,0,0,1-4.85,19.76A34.94,34.94,0,0,1,260.4,95a37.89,37.89,0,0,1-19.08,4.85Z" fill="#4f4f4f"/></g><g opacity="0.3"><path d="M429.12,5.85,479,117.45H458.48L448.9,94.26a3.81,3.81,0,0,0-3.52-2.36H390a3.81,3.81,0,0,0-3.52,2.36l-9.59,23.19H357.07L406.81,5.85h22.31M398.88,78.57h37.81a3.81,3.81,0,0,0,3.52-5.27l-18.9-45.64a3.81,3.81,0,0,0-7,0L395.36,73.3a3.82,3.82,0,0,0,3.52,5.27M431.59,2H404.34L351.2,121.26h28.27L390,95.71h55.35l10.56,25.55h28.95L431.59,2ZM398.88,74.76l18.91-45.64,18.9,45.64Z" fill="#4f4f4f"/></g><g opacity="0.3"><path d="M601.77,5.85V20.37H542.9a3.82,3.82,0,0,0-3.81,3.81V50.07a3.81,3.81,0,0,0,3.81,3.81h51.54V67.72H542.9a3.81,3.81,0,0,0-3.81,3.81V99.12a3.81,3.81,0,0,0,3.81,3.81H604v14.52H519.29V5.85h82.48M605.58,2h-90.1V121.26h92.31V99.12H542.9V71.53h55.35V50.07H542.9V24.18h62.68V2Z" fill="#4f4f4f"/></g></g></g></svg>