<svg width="42" height="42" viewBox="0 0 42 42" fill="none" xmlns="http://www.w3.org/2000/svg">
<rect width="42" height="42" rx="21" fill="#E5F2EB"/>
<g clip-path="url(#clip0_40000045_24225)">
<path d="M30.5003 11.0009H22.5003C21.8373 11.0009 21.2014 11.2643 20.7326 11.7331C20.2637 12.2019 20.0003 12.8378 20.0003 13.5009V13.8009L18.7353 11.6069C18.5755 11.3116 18.3587 11.0511 18.0975 10.8403C17.8362 10.6295 17.5357 10.4726 17.2133 10.3789C16.6772 10.228 16.106 10.2605 15.5904 10.4712C15.0748 10.6819 14.6444 11.0587 14.3673 11.5419L9.37534 20.1879C9.20021 20.4739 9.08353 20.7919 9.03204 21.1233C8.98055 21.4548 8.99526 21.7931 9.07534 22.1189C9.21276 22.6575 9.52581 23.135 9.96498 23.4759C10.4042 23.8167 10.9444 24.0014 11.5003 24.0009H14.2003C13.8984 25.0539 13.8452 26.1627 14.0448 27.2398C14.2445 28.3169 14.6915 29.333 15.3508 30.2079C16.0101 31.0828 16.8636 31.7926 17.844 32.2814C18.8243 32.7702 19.9048 33.0246 21.0003 33.0246C22.0958 33.0246 23.1763 32.7702 24.1567 32.2814C25.1371 31.7926 25.9905 31.0828 26.6498 30.2079C27.3091 29.333 27.7562 28.3169 27.9558 27.2398C28.1555 26.1627 28.1023 25.0539 27.8003 24.0009H30.5003C30.8286 24.0009 31.1537 23.9362 31.457 23.8106C31.7603 23.6849 32.0359 23.5008 32.2681 23.2686C32.5002 23.0365 32.6844 22.7609 32.81 22.4576C32.9356 22.1543 33.0003 21.8292 33.0003 21.5009V13.5009C33.0003 13.1726 32.9356 12.8475 32.81 12.5442C32.6844 12.2408 32.5002 11.9652 32.2681 11.7331C32.0359 11.501 31.7603 11.3168 31.457 11.1912C31.1537 11.0655 30.8286 11.0009 30.5003 11.0009ZM12.3703 21.0009L16.5323 13.7919L19.5423 19.0009C18.1654 19.2921 16.9071 19.9886 15.9293 21.0009H12.3703ZM21.0003 30.0008C20.1946 30.0008 19.4069 29.7619 18.7369 29.3143C18.067 28.8666 17.5448 28.2303 17.2364 27.4859C16.9281 26.7415 16.8474 25.9223 17.0046 25.1321C17.1618 24.3418 17.5498 23.6159 18.1196 23.0461C18.6893 22.4763 19.4152 22.0883 20.2055 21.9311C20.9958 21.7739 21.8149 21.8546 22.5594 22.163C23.3038 22.4713 23.9401 22.9935 24.3877 23.6635C24.8354 24.3334 25.0743 25.1211 25.0743 25.9269C25.073 27.0069 24.6433 28.0424 23.8796 28.8061C23.1159 29.5699 22.0804 29.9995 21.0003 30.0008ZM30.0003 21.0009H26.0713C25.2142 20.1398 24.1601 19.5007 23.0003 19.1389V14.0009H30.0003V21.0009Z" fill="#006128"/>
</g>
<defs>
<clipPath id="clip0_40000045_24225">
<rect width="24" height="24" fill="white" transform="translate(9 9)"/>
</clipPath>
</defs>
</svg>
