<svg width="42" height="42" viewBox="0 0 42 42" fill="none" xmlns="http://www.w3.org/2000/svg">
<rect width="42" height="42" rx="21" fill="#E5F2EB"/>
<path fill-rule="evenodd" clip-rule="evenodd" d="M17.8336 15.5694C17.4823 16.6653 16.6056 17.526 15.5 17.8551V24.1449C16.3613 24.4013 17.0836 24.9802 17.5269 25.7415L18.4092 25.624L18.6734 27.6064L17.9946 27.6969C17.8924 29.5383 16.3669 31 14.5 31C12.567 31 11 29.433 11 27.5C11 25.9145 12.0543 24.5752 13.5 24.1449V17.8551C12.0543 17.4248 11 16.0855 11 14.5C11 12.567 12.567 11 14.5 11C16.1062 11 17.4596 12.0819 17.8714 13.5567L24.1765 14.3996C24.6378 13.0057 25.9514 12 27.5 12C29.433 12 31 13.567 31 15.5C31 17.0855 29.9457 18.4248 28.5 18.8551V22.1449C29.9457 22.5752 31 23.9145 31 25.5C31 27.433 29.433 29 27.5 29C26.0493 29 24.8048 28.1175 24.2741 26.86L23.5117 26.9616L23.2475 24.9791L24.0563 24.8713C24.2926 23.5686 25.2499 22.517 26.5 22.1449V18.8551C25.3412 18.5102 24.4339 17.5813 24.1194 16.4098L17.8336 15.5694ZM19.6188 25.4627L19.883 27.4452L22.3021 27.1228L22.0379 25.1403L19.6188 25.4627Z" fill="#006128"/>
</svg>
